<svg xmlns="http://www.w3.org/2000/svg" viewBox="0 0 172 60" fill="#111827">
<rect x="81" y="0" width="2" height="1"/>
<rect x="79" y="1" width="6" height="1"/>
<rect x="79" y="2" width="7" height="1"/>
<rect x="78" y="3" width="8" height="1"/>
<rect x="68" y="4" width="4" height="1"/>
<rect x="78" y="4" width="8" height="1"/>
<rect x="67" y="5" width="6" height="1"/>
<rect x="78" y="5" width="8" height="1"/>
<rect x="67" y="6" width="7" height="1"/>
<rect x="79" y="6" width="7" height="1"/>
<rect x="67" y="7" width="7" height="1"/>
<rect x="79" y="7" width="6" height="1"/>
<rect x="91" y="7" width="5" height="1"/>
<rect x="67" y="8" width="7" height="1"/>
<rect x="82" y="8" width="1" height="1"/>
<rect x="90" y="8" width="7" height="1"/>
<rect x="67" y="9" width="6" height="1"/>
<rect x="81" y="9" width="3" height="1"/>
<rect x="90" y="9" width="7" height="1"/>
<rect x="68" y="10" width="5" height="1"/>
<rect x="78" y="10" width="1" height="1"/>
<rect x="80" y="10" width="4" height="1"/>
<rect x="85" y="10" width="1" height="1"/>
<rect x="90" y="10" width="7" height="1"/>
<rect x="77" y="11" width="2" height="1"/>
<rect x="80" y="11" width="4" height="1"/>
<rect x="85" y="11" width="2" height="1"/>
<rect x="90" y="11" width="7" height="1"/>
<rect x="68" y="12" width="1" height="1"/>
<rect x="70" y="12" width="3" height="1"/>
<rect x="76" y="12" width="3" height="1"/>
<rect x="80" y="12" width="4" height="1"/>
<rect x="85" y="12" width="3" height="1"/>
<rect x="91" y="12" width="5" height="1"/>
<rect x="66" y="13" width="4" height="1"/>
<rect x="71" y="13" width="3" height="1"/>
<rect x="76" y="13" width="3" height="1"/>
<rect x="81" y="13" width="3" height="1"/>
<rect x="85" y="13" width="3" height="1"/>
<rect x="93" y="13" width="1" height="1"/>
<rect x="65" y="14" width="5" height="1"/>
<rect x="71" y="14" width="4" height="1"/>
<rect x="76" y="14" width="3" height="1"/>
<rect x="81" y="14" width="3" height="1"/>
<rect x="85" y="14" width="3" height="1"/>
<rect x="66" y="15" width="5" height="1"/>
<rect x="72" y="15" width="3" height="1"/>
<rect x="77" y="15" width="3" height="1"/>
<rect x="81" y="15" width="3" height="1"/>
<rect x="85" y="15" width="3" height="1"/>
<rect x="90" y="15" width="2" height="1"/>
<rect x="93" y="15" width="4" height="1"/>
<rect x="64" y="16" width="2" height="1"/>
<rect x="67" y="16" width="4" height="1"/>
<rect x="72" y="16" width="4" height="1"/>
<rect x="77" y="16" width="3" height="1"/>
<rect x="81" y="16" width="2" height="1"/>
<rect x="85" y="16" width="2" height="1"/>
<rect x="89" y="16" width="3" height="1"/>
<rect x="93" y="16" width="5" height="1"/>
<rect x="64" y="17" width="3" height="1"/>
<rect x="68" y="17" width="4" height="1"/>
<rect x="73" y="17" width="3" height="1"/>
<rect x="77" y="17" width="3" height="1"/>
<rect x="81" y="17" width="2" height="1"/>
<rect x="85" y="17" width="2" height="1"/>
<rect x="88" y="17" width="3" height="1"/>
<rect x="92" y="17" width="5" height="1"/>
<rect x="98" y="17" width="1" height="1"/>
<rect x="64" y="18" width="3" height="1"/>
<rect x="69" y="18" width="3" height="1"/>
<rect x="74" y="18" width="2" height="1"/>
<rect x="78" y="18" width="2" height="1"/>
<rect x="81" y="18" width="2" height="1"/>
<rect x="85" y="18" width="2" height="1"/>
<rect x="88" y="18" width="3" height="1"/>
<rect x="92" y="18" width="4" height="1"/>
<rect x="97" y="18" width="2" height="1"/>
<rect x="64" y="19" width="4" height="1"/>
<rect x="70" y="19" width="3" height="1"/>
<rect x="74" y="19" width="2" height="1"/>
<rect x="78" y="19" width="2" height="1"/>
<rect x="81" y="19" width="2" height="1"/>
<rect x="85" y="19" width="1" height="1"/>
<rect x="88" y="19" width="2" height="1"/>
<rect x="91" y="19" width="4" height="1"/>
<rect x="96" y="19" width="4" height="1"/>
<rect x="64" y="20" width="5" height="1"/>
<rect x="70" y="20" width="3" height="1"/>
<rect x="75" y="20" width="2" height="1"/>
<rect x="78" y="20" width="2" height="1"/>
<rect x="81" y="20" width="2" height="1"/>
<rect x="85" y="20" width="1" height="1"/>
<rect x="87" y="20" width="3" height="1"/>
<rect x="91" y="20" width="3" height="1"/>
<rect x="96" y="20" width="4" height="1"/>
<rect x="66" y="21" width="4" height="1"/>
<rect x="71" y="21" width="3" height="1"/>
<rect x="75" y="21" width="2" height="1"/>
<rect x="79" y="21" width="1" height="1"/>
<rect x="82" y="21" width="1" height="1"/>
<rect x="84" y="21" width="2" height="1"/>
<rect x="87" y="21" width="2" height="1"/>
<rect x="90" y="21" width="3" height="1"/>
<rect x="95" y="21" width="4" height="1"/>
<rect x="64" y="22" width="1" height="1"/>
<rect x="67" y="22" width="3" height="1"/>
<rect x="72" y="22" width="2" height="1"/>
<rect x="76" y="22" width="1" height="1"/>
<rect x="79" y="22" width="1" height="1"/>
<rect x="82" y="22" width="1" height="1"/>
<rect x="84" y="22" width="1" height="1"/>
<rect x="87" y="22" width="1" height="1"/>
<rect x="90" y="22" width="2" height="1"/>
<rect x="94" y="22" width="3" height="1"/>
<rect x="99" y="22" width="1" height="1"/>
<rect x="64" y="23" width="2" height="1"/>
<rect x="68" y="23" width="3" height="1"/>
<rect x="73" y="23" width="2" height="1"/>
<rect x="76" y="23" width="1" height="1"/>
<rect x="79" y="23" width="1" height="1"/>
<rect x="82" y="23" width="1" height="1"/>
<rect x="84" y="23" width="1" height="1"/>
<rect x="87" y="23" width="1" height="1"/>
<rect x="90" y="23" width="1" height="1"/>
<rect x="93" y="23" width="3" height="1"/>
<rect x="98" y="23" width="2" height="1"/>
<rect x="64" y="24" width="4" height="1"/>
<rect x="69" y="24" width="3" height="1"/>
<rect x="74" y="24" width="1" height="1"/>
<rect x="77" y="24" width="1" height="1"/>
<rect x="89" y="24" width="1" height="1"/>
<rect x="93" y="24" width="2" height="1"/>
<rect x="97" y="24" width="3" height="1"/>
<rect x="64" y="25" width="5" height="1"/>
<rect x="71" y="25" width="1" height="1"/>
<rect x="89" y="25" width="1" height="1"/>
<rect x="92" y="25" width="2" height="1"/>
<rect x="96" y="25" width="4" height="1"/>
<rect x="66" y="26" width="4" height="1"/>
<rect x="72" y="26" width="1" height="1"/>
<rect x="91" y="26" width="1" height="1"/>
<rect x="95" y="26" width="3" height="1"/>
<rect x="64" y="27" width="2" height="1"/>
<rect x="68" y="27" width="3" height="1"/>
<rect x="94" y="27" width="2" height="1"/>
<rect x="99" y="27" width="1" height="1"/>
<rect x="64" y="28" width="3" height="1"/>
<rect x="70" y="28" width="2" height="1"/>
<rect x="93" y="28" width="1" height="1"/>
<rect x="97" y="28" width="3" height="1"/>
<rect x="64" y="29" width="5" height="1"/>
<rect x="96" y="29" width="4" height="1"/>
<rect x="67" y="30" width="3" height="1"/>
<rect x="94" y="30" width="4" height="1"/>
<rect x="64" y="31" width="2" height="1"/>
<rect x="70" y="31" width="1" height="1"/>
<rect x="93" y="31" width="1" height="1"/>
<rect x="98" y="31" width="2" height="1"/>
<rect x="64" y="32" width="4" height="1"/>
<rect x="96" y="32" width="4" height="1"/>
<rect x="64" y="33" width="7" height="1"/>
<rect x="94" y="33" width="6" height="1"/>
<rect x="0" y="47" width="3" height="1"/>
<rect x="7" y="47" width="2" height="1"/>
<rect x="12" y="47" width="3" height="1"/>
<rect x="20" y="47" width="2" height="1"/>
<rect x="25" y="47" width="6" height="1"/>
<rect x="33" y="47" width="7" height="1"/>
<rect x="42" y="47" width="7" height="1"/>
<rect x="59" y="47" width="7" height="1"/>
<rect x="69" y="47" width="7" height="1"/>
<rect x="78" y="47" width="7" height="1"/>
<rect x="88" y="47" width="4" height="1"/>
<rect x="96" y="47" width="4" height="1"/>
<rect x="105" y="47" width="4" height="1"/>
<rect x="114" y="47" width="3" height="1"/>
<rect x="122" y="47" width="2" height="1"/>
<rect x="126" y="47" width="7" height="1"/>
<rect x="135" y="47" width="3" height="1"/>
<rect x="143" y="47" width="12" height="1"/>
<rect x="156" y="47" width="7" height="1"/>
<rect x="0" y="48" width="3" height="1"/>
<rect x="6" y="48" width="2" height="1"/>
<rect x="11" y="48" width="4" height="1"/>
<rect x="20" y="48" width="2" height="1"/>
<rect x="24" y="48" width="3" height="1"/>
<rect x="29" y="48" width="2" height="1"/>
<rect x="33" y="48" width="7" height="1"/>
<rect x="42" y="48" width="8" height="1"/>
<rect x="59" y="48" width="8" height="1"/>
<rect x="69" y="48" width="6" height="1"/>
<rect x="78" y="48" width="8" height="1"/>
<rect x="88" y="48" width="4" height="1"/>
<rect x="96" y="48" width="4" height="1"/>
<rect x="105" y="48" width="4" height="1"/>
<rect x="114" y="48" width="4" height="1"/>
<rect x="122" y="48" width="2" height="1"/>
<rect x="126" y="48" width="7" height="1"/>
<rect x="135" y="48" width="4" height="1"/>
<rect x="143" y="48" width="12" height="1"/>
<rect x="156" y="48" width="7" height="1"/>
<rect x="0" y="49" width="3" height="1"/>
<rect x="5" y="49" width="2" height="1"/>
<rect x="11" y="49" width="5" height="1"/>
<rect x="20" y="49" width="2" height="1"/>
<rect x="24" y="49" width="2" height="1"/>
<rect x="33" y="49" width="2" height="1"/>
<rect x="42" y="49" width="2" height="1"/>
<rect x="48" y="49" width="2" height="1"/>
<rect x="59" y="49" width="2" height="1"/>
<rect x="65" y="49" width="2" height="1"/>
<rect x="69" y="49" width="2" height="1"/>
<rect x="78" y="49" width="2" height="1"/>
<rect x="84" y="49" width="2" height="1"/>
<rect x="88" y="49" width="5" height="1"/>
<rect x="96" y="49" width="4" height="1"/>
<rect x="105" y="49" width="4" height="1"/>
<rect x="114" y="49" width="4" height="1"/>
<rect x="122" y="49" width="2" height="1"/>
<rect x="126" y="49" width="2" height="1"/>
<rect x="135" y="49" width="4" height="1"/>
<rect x="143" y="49" width="2" height="1"/>
<rect x="149" y="49" width="2" height="1"/>
<rect x="156" y="49" width="2" height="1"/>
<rect x="0" y="50" width="3" height="1"/>
<rect x="4" y="50" width="3" height="1"/>
<rect x="11" y="50" width="2" height="1"/>
<rect x="14" y="50" width="2" height="1"/>
<rect x="20" y="50" width="2" height="1"/>
<rect x="24" y="50" width="2" height="1"/>
<rect x="33" y="50" width="2" height="1"/>
<rect x="42" y="50" width="2" height="1"/>
<rect x="48" y="50" width="3" height="1"/>
<rect x="59" y="50" width="2" height="1"/>
<rect x="65" y="50" width="2" height="1"/>
<rect x="69" y="50" width="2" height="1"/>
<rect x="78" y="50" width="2" height="1"/>
<rect x="84" y="50" width="2" height="1"/>
<rect x="88" y="50" width="5" height="1"/>
<rect x="96" y="50" width="4" height="1"/>
<rect x="104" y="50" width="2" height="1"/>
<rect x="108" y="50" width="2" height="1"/>
<rect x="114" y="50" width="5" height="1"/>
<rect x="122" y="50" width="2" height="1"/>
<rect x="126" y="50" width="2" height="1"/>
<rect x="135" y="50" width="5" height="1"/>
<rect x="143" y="50" width="2" height="1"/>
<rect x="149" y="50" width="2" height="1"/>
<rect x="156" y="50" width="2" height="1"/>
<rect x="0" y="51" width="2" height="1"/>
<rect x="4" y="51" width="2" height="1"/>
<rect x="10" y="51" width="2" height="1"/>
<rect x="14" y="51" width="2" height="1"/>
<rect x="20" y="51" width="2" height="1"/>
<rect x="24" y="51" width="3" height="1"/>
<rect x="33" y="51" width="2" height="1"/>
<rect x="42" y="51" width="2" height="1"/>
<rect x="48" y="51" width="2" height="1"/>
<rect x="59" y="51" width="2" height="1"/>
<rect x="65" y="51" width="2" height="1"/>
<rect x="69" y="51" width="2" height="1"/>
<rect x="78" y="51" width="2" height="1"/>
<rect x="84" y="51" width="2" height="1"/>
<rect x="88" y="51" width="2" height="1"/>
<rect x="91" y="51" width="2" height="1"/>
<rect x="95" y="51" width="2" height="1"/>
<rect x="98" y="51" width="2" height="1"/>
<rect x="104" y="51" width="2" height="1"/>
<rect x="108" y="51" width="2" height="1"/>
<rect x="114" y="51" width="2" height="1"/>
<rect x="117" y="51" width="2" height="1"/>
<rect x="122" y="51" width="2" height="1"/>
<rect x="126" y="51" width="2" height="1"/>
<rect x="135" y="51" width="2" height="1"/>
<rect x="138" y="51" width="2" height="1"/>
<rect x="143" y="51" width="2" height="1"/>
<rect x="149" y="51" width="2" height="1"/>
<rect x="156" y="51" width="2" height="1"/>
<rect x="0" y="52" width="5" height="1"/>
<rect x="10" y="52" width="2" height="1"/>
<rect x="15" y="52" width="2" height="1"/>
<rect x="20" y="52" width="2" height="1"/>
<rect x="25" y="52" width="4" height="1"/>
<rect x="33" y="52" width="6" height="1"/>
<rect x="42" y="52" width="8" height="1"/>
<rect x="59" y="52" width="8" height="1"/>
<rect x="69" y="52" width="6" height="1"/>
<rect x="78" y="52" width="7" height="1"/>
<rect x="88" y="52" width="2" height="1"/>
<rect x="91" y="52" width="2" height="1"/>
<rect x="95" y="52" width="2" height="1"/>
<rect x="98" y="52" width="2" height="1"/>
<rect x="104" y="52" width="2" height="1"/>
<rect x="108" y="52" width="2" height="1"/>
<rect x="114" y="52" width="2" height="1"/>
<rect x="117" y="52" width="3" height="1"/>
<rect x="122" y="52" width="2" height="1"/>
<rect x="126" y="52" width="6" height="1"/>
<rect x="135" y="52" width="2" height="1"/>
<rect x="138" y="52" width="3" height="1"/>
<rect x="143" y="52" width="2" height="1"/>
<rect x="149" y="52" width="2" height="1"/>
<rect x="156" y="52" width="6" height="1"/>
<rect x="0" y="53" width="5" height="1"/>
<rect x="10" y="53" width="2" height="1"/>
<rect x="15" y="53" width="2" height="1"/>
<rect x="20" y="53" width="2" height="1"/>
<rect x="26" y="53" width="5" height="1"/>
<rect x="33" y="53" width="6" height="1"/>
<rect x="42" y="53" width="7" height="1"/>
<rect x="59" y="53" width="7" height="1"/>
<rect x="69" y="53" width="6" height="1"/>
<rect x="78" y="53" width="6" height="1"/>
<rect x="88" y="53" width="2" height="1"/>
<rect x="92" y="53" width="1" height="1"/>
<rect x="95" y="53" width="2" height="1"/>
<rect x="98" y="53" width="2" height="1"/>
<rect x="103" y="53" width="2" height="1"/>
<rect x="109" y="53" width="2" height="1"/>
<rect x="114" y="53" width="2" height="1"/>
<rect x="118" y="53" width="2" height="1"/>
<rect x="122" y="53" width="2" height="1"/>
<rect x="126" y="53" width="6" height="1"/>
<rect x="135" y="53" width="2" height="1"/>
<rect x="139" y="53" width="2" height="1"/>
<rect x="143" y="53" width="2" height="1"/>
<rect x="149" y="53" width="2" height="1"/>
<rect x="156" y="53" width="6" height="1"/>
<rect x="166" y="53" width="2" height="1"/>
<rect x="169" y="53" width="1" height="1"/>
<rect x="0" y="54" width="2" height="1"/>
<rect x="4" y="54" width="2" height="1"/>
<rect x="9" y="54" width="8" height="1"/>
<rect x="20" y="54" width="2" height="1"/>
<rect x="28" y="54" width="3" height="1"/>
<rect x="33" y="54" width="2" height="1"/>
<rect x="42" y="54" width="2" height="1"/>
<rect x="45" y="54" width="3" height="1"/>
<rect x="59" y="54" width="2" height="1"/>
<rect x="69" y="54" width="2" height="1"/>
<rect x="78" y="54" width="2" height="1"/>
<rect x="81" y="54" width="3" height="1"/>
<rect x="88" y="54" width="2" height="1"/>
<rect x="92" y="54" width="2" height="1"/>
<rect x="95" y="54" width="2" height="1"/>
<rect x="98" y="54" width="2" height="1"/>
<rect x="103" y="54" width="8" height="1"/>
<rect x="114" y="54" width="2" height="1"/>
<rect x="118" y="54" width="3" height="1"/>
<rect x="122" y="54" width="2" height="1"/>
<rect x="126" y="54" width="2" height="1"/>
<rect x="135" y="54" width="2" height="1"/>
<rect x="139" y="54" width="3" height="1"/>
<rect x="143" y="54" width="2" height="1"/>
<rect x="149" y="54" width="2" height="1"/>
<rect x="156" y="54" width="2" height="1"/>
<rect x="165" y="54" width="1" height="1"/>
<rect x="0" y="55" width="3" height="1"/>
<rect x="4" y="55" width="3" height="1"/>
<rect x="9" y="55" width="9" height="1"/>
<rect x="20" y="55" width="2" height="1"/>
<rect x="29" y="55" width="3" height="1"/>
<rect x="33" y="55" width="2" height="1"/>
<rect x="42" y="55" width="2" height="1"/>
<rect x="46" y="55" width="2" height="1"/>
<rect x="59" y="55" width="2" height="1"/>
<rect x="69" y="55" width="2" height="1"/>
<rect x="78" y="55" width="2" height="1"/>
<rect x="82" y="55" width="2" height="1"/>
<rect x="88" y="55" width="2" height="1"/>
<rect x="92" y="55" width="4" height="1"/>
<rect x="98" y="55" width="2" height="1"/>
<rect x="103" y="55" width="8" height="1"/>
<rect x="114" y="55" width="2" height="1"/>
<rect x="119" y="55" width="2" height="1"/>
<rect x="122" y="55" width="2" height="1"/>
<rect x="126" y="55" width="2" height="1"/>
<rect x="135" y="55" width="2" height="1"/>
<rect x="140" y="55" width="2" height="1"/>
<rect x="143" y="55" width="2" height="1"/>
<rect x="149" y="55" width="2" height="1"/>
<rect x="156" y="55" width="2" height="1"/>
<rect x="165" y="55" width="1" height="1"/>
<rect x="167" y="55" width="1" height="1"/>
<rect x="169" y="55" width="1" height="1"/>
<rect x="171" y="55" width="1" height="1"/>
<rect x="0" y="56" width="3" height="1"/>
<rect x="5" y="56" width="2" height="1"/>
<rect x="9" y="56" width="2" height="1"/>
<rect x="16" y="56" width="2" height="1"/>
<rect x="20" y="56" width="2" height="1"/>
<rect x="29" y="56" width="3" height="1"/>
<rect x="33" y="56" width="2" height="1"/>
<rect x="42" y="56" width="2" height="1"/>
<rect x="47" y="56" width="2" height="1"/>
<rect x="59" y="56" width="2" height="1"/>
<rect x="69" y="56" width="2" height="1"/>
<rect x="78" y="56" width="2" height="1"/>
<rect x="82" y="56" width="3" height="1"/>
<rect x="88" y="56" width="2" height="1"/>
<rect x="92" y="56" width="4" height="1"/>
<rect x="98" y="56" width="2" height="1"/>
<rect x="102" y="56" width="2" height="1"/>
<rect x="109" y="56" width="3" height="1"/>
<rect x="114" y="56" width="2" height="1"/>
<rect x="119" y="56" width="5" height="1"/>
<rect x="126" y="56" width="2" height="1"/>
<rect x="135" y="56" width="2" height="1"/>
<rect x="140" y="56" width="5" height="1"/>
<rect x="149" y="56" width="2" height="1"/>
<rect x="156" y="56" width="2" height="1"/>
<rect x="167" y="56" width="2" height="1"/>
<rect x="171" y="56" width="1" height="1"/>
<rect x="0" y="57" width="3" height="1"/>
<rect x="6" y="57" width="4" height="1"/>
<rect x="16" y="57" width="2" height="1"/>
<rect x="20" y="57" width="2" height="1"/>
<rect x="24" y="57" width="1" height="1"/>
<rect x="29" y="57" width="2" height="1"/>
<rect x="33" y="57" width="2" height="1"/>
<rect x="42" y="57" width="2" height="1"/>
<rect x="47" y="57" width="3" height="1"/>
<rect x="59" y="57" width="2" height="1"/>
<rect x="69" y="57" width="2" height="1"/>
<rect x="77" y="57" width="3" height="1"/>
<rect x="83" y="57" width="2" height="1"/>
<rect x="88" y="57" width="2" height="1"/>
<rect x="92" y="57" width="4" height="1"/>
<rect x="98" y="57" width="2" height="1"/>
<rect x="102" y="57" width="2" height="1"/>
<rect x="110" y="57" width="2" height="1"/>
<rect x="114" y="57" width="2" height="1"/>
<rect x="120" y="57" width="4" height="1"/>
<rect x="126" y="57" width="3" height="1"/>
<rect x="135" y="57" width="2" height="1"/>
<rect x="141" y="57" width="4" height="1"/>
<rect x="149" y="57" width="2" height="1"/>
<rect x="156" y="57" width="2" height="1"/>
<rect x="165" y="57" width="1" height="1"/>
<rect x="171" y="57" width="1" height="1"/>
<rect x="0" y="58" width="3" height="1"/>
<rect x="6" y="58" width="4" height="1"/>
<rect x="17" y="58" width="2" height="1"/>
<rect x="20" y="58" width="2" height="1"/>
<rect x="24" y="58" width="7" height="1"/>
<rect x="33" y="58" width="11" height="1"/>
<rect x="48" y="58" width="2" height="1"/>
<rect x="59" y="58" width="2" height="1"/>
<rect x="69" y="58" width="11" height="1"/>
<rect x="83" y="58" width="3" height="1"/>
<rect x="88" y="58" width="2" height="1"/>
<rect x="93" y="58" width="3" height="1"/>
<rect x="98" y="58" width="2" height="1"/>
<rect x="102" y="58" width="2" height="1"/>
<rect x="110" y="58" width="2" height="1"/>
<rect x="114" y="58" width="2" height="1"/>
<rect x="120" y="58" width="4" height="1"/>
<rect x="126" y="58" width="11" height="1"/>
<rect x="142" y="58" width="3" height="1"/>
<rect x="149" y="58" width="2" height="1"/>
<rect x="156" y="58" width="7" height="1"/>
<rect x="166" y="58" width="1" height="1"/>
<rect x="170" y="58" width="1" height="1"/>
<rect x="1" y="59" width="1" height="1"/>
<rect x="7" y="59" width="2" height="1"/>
<rect x="17" y="59" width="2" height="1"/>
<rect x="20" y="59" width="2" height="1"/>
<rect x="25" y="59" width="4" height="1"/>
<rect x="34" y="59" width="10" height="1"/>
<rect x="49" y="59" width="1" height="1"/>
<rect x="59" y="59" width="2" height="1"/>
<rect x="69" y="59" width="10" height="1"/>
<rect x="84" y="59" width="2" height="1"/>
<rect x="88" y="59" width="2" height="1"/>
<rect x="93" y="59" width="2" height="1"/>
<rect x="98" y="59" width="2" height="1"/>
<rect x="102" y="59" width="1" height="1"/>
<rect x="111" y="59" width="1" height="1"/>
<rect x="114" y="59" width="1" height="1"/>
<rect x="121" y="59" width="2" height="1"/>
<rect x="126" y="59" width="11" height="1"/>
<rect x="142" y="59" width="3" height="1"/>
<rect x="149" y="59" width="2" height="1"/>
<rect x="156" y="59" width="7" height="1"/>
<rect x="168" y="59" width="1" height="1"/>
</svg>