<?xml version="1.0" encoding="UTF-8"?>
<svg id="Layer_2" data-name="Layer 2" xmlns="http://www.w3.org/2000/svg" viewBox="0 0 1128.91 308.09">
  <g id="Layer_1-2" data-name="Layer 1">
    <path d="M955.38,230.46c0-1.74.52-3.93.83-5.91l75.71.02c.64,4.83.63,8.13.17,12.48l-23.9.05-.09,70.71-14.23.06-.06-70.88-24.82.16-.17,70.7-19.39-.14-12.72-25.64-19.46-37.28-.12,63.09-70.7.06.03-83.34,44.05-.09c1.07,3.72,1.11,7.24.53,11.88l-30.46.16-.1,23.3,24.11.08c.97,3.68,1.05,7.74.5,12.13l-24.58.05.04,23.62,43.17-.05.07-70.9,18.64-.31,32.66,64.95c.79-5.57.36-9.69.35-14.47l-.07-44.49Z"/>
    <path d="M679.92,95.9c11.75,0,35.13-1.83,44.36,3.46,8.67,4.97,12.24,14.64,10.58,24.49-1.47,8.71-8.29,15.94-18.13,18.7l21.58,36.12-16.38.35-8.73-15.52-11.61-19.93-7.17.04-.18,35.31-71.64-.09.02-83.21,44.33-.04c.58,4.12.57,7.69.01,11.49l-30.45.47.17,24.04,23.53.34c1.77,2.84,1.52,7.24.39,11.19l-23.96.14-.07,23.41,43.38.09-.03-70.86ZM721.45,118.51c-.42-5.47-3.97-10.01-9.65-10.18l-17.44-.54.04,23.58,15.98-.12c6.86-.05,11.64-5.39,11.08-12.74Z"/>
    <path d="M532.94,229.61l-.85-3.19c-.2-.74,2.13-1.83,3.08-1.83l23.78-.06c8.27-.02,16.69,1.97,22.56,7.88,6.35,6.4,7.3,15.29,4.34,24.38-2.2,6.73-8.73,12.12-17.17,14.54l21.82,36.3-16.4.18-20.09-35.08c-2.49-.17-5.37-.16-7.5-.01l-.11,35.15-71.76.15-.03-83.42,44.25-.1c.53,4.47.61,7.48.33,11.88l-30.74.19.09,23.32,24.55.04-.11,12.04-24.62.29-.07,23.38,44.28.11.3-5.8.05-60.35ZM568.07,258.34c5.74-2.42,6.29-9.21,4.91-14.15-1.28-4.58-6.15-7.4-11.63-7.46l-14.89-.15.13,24.2c7.64.42,14.61.45,21.47-2.44Z"/>
    <path d="M532.04,178.74l-14.71.27-7.72-23.96-30.23-.08-7.9,24h-16.67s-30.32-41.48-30.32-41.48l.11,41.05c-5.21.43-9.25.47-14.17.08v-82.81s14.09-.04,14.09-.04l.1,39.69,28.94-39.51,15.87.11-30.81,40.23,23.57,29.86,24.06-70.19,17.58-.1,28.21,82.88ZM505.75,143.54l-11.76-35.38-11,35.19,22.76.19Z"/>
    <path d="M177.8,73.63c-16.13,4.23-34.85-.31-42.67-16.18-8.88-18-5.7-46.81,15.88-54.61,6.1-2.2,12.22-3.46,18.54-2.54,15.55.12,28.57,10.12,31.93,25.52,3.86,17.69-2.18,43.22-23.68,47.81Z"/>
    <path d="M664.74,307.6l-.26-69.77-17.89,69.84-14.09.26-18.11-70.73-.15,69.96c-4.61,1.05-8.82,1.07-13.71-.3l-.04-82.28,24.68.02,14.34,60.33,14.63-60.31,24.33-.03.04,82.87c-4.28.48-7.16.47-13.76.15Z"/>
    <path d="M85.52,86.12c-6.18,10.73-18.73,14.86-30.45,13.85-17.86-1.54-29.72-15.42-29.41-33.05.17-9.48,2.07-18.42,9.52-24.82,13.14-11.29,33.4-11.59,45.89.5,6.23,6.03,8.97,13.92,8.3,22.25,1.08,7.15.09,14.41-3.85,21.27Z"/>
    <path d="M287.77,115.51c-15.43,10.31-37.25,5.98-46.59-9.9-6.38-10.85-5.59-25,.72-35.55,6.62-11.08,19.7-15.12,32.06-13.34,14.44,2.08,24.32,13.83,25.64,28.13,1.06,11.46-1.26,23.59-11.83,30.65Z"/>
    <path d="M831.5,303.41c0,3.11-2.16,4.71-4.31,4.65l-14.94-.38-18.68-36.62-13.5-26.18-.06,62.75c-5.19.23-8.99.24-13.46-.05l-.04-82.83,17.78-.31c2.27,3.34,4.64,7.15,6.54,10.92l27,53.41.09-63.86c4.51-.51,8.18-.49,13.53.05l.06,78.43Z"/>
    <path d="M108.29,239.56L12.72,128.42c8.71-12.22,22.32-20.07,37.28-20.72l58.29,131.86Z"/>
    <path d="M166.29,227.48l-21.12-142.84c13.59-5.48,28.06-4.92,41.52,0l-20.4,142.83Z"/>
    <path d="M308.73,144.64l-88.88,97.83,49.67-113.92c14.55.16,27.65,4.87,39.21,16.09Z"/>
    <path d="M.29,180.88c-.5-5.59-.27-10.52.23-15.94.36-11.37,3.52-22.56,9.12-32.44l83.25,120.12L.29,180.88Z"/>
    <path d="M220.71,130.06l-26.42,74.74c-2.99,8.47-5.22,16.52-9.3,24.34l6.91-143.5c14.96,5.39,34.34,28.74,28.8,44.42Z"/>
    <path d="M114.92,140.28c-4.78-10.44-5.87-20.12-.94-30.17,5.86-10.41,14.64-19.63,26.16-24.45l6.82,143.87-32.05-89.26Z"/>
    <path d="M114.02,171.73l12.18,60.86c-12.25-19.49-22.4-38.4-33.15-57.82l-3.27-5.9-34.23-61.6c19.73-1.22,39.48,6.16,47.38,26.04,4.88,12.28,8.36,24.76,11.09,38.42Z"/>
    <path d="M737.56,283.97l-30.37-.17-7.67,24.08-13.78-.12,28.34-82.99,17.6-.3,28.48,83.11-14.58.52-8.02-24.12ZM733.86,272.58l-11.85-34.89-9.96,30.14c-.38,1.14-1.34,3.36-.65,4.04.56.55,2.62,1.23,3.42,1.21l19.04-.51Z"/>
    <path d="M325.28,185.71l-88.56,68.87,75.62-105.93c9.13,9.48,13.19,22.71,12.94,37.06Z"/>
    <path d="M444.89,272.71c-6.77.88-12.94.67-20.01.75-.33,1.44-.35,4.32-.36,6.42l-.13,28.04-13.92-.11-.07-82.89c10.63-.5,20.92-.53,31.39-.17,12.26.42,21.94,8.31,23.58,20.11,1.9,13.61-6.13,25.99-20.49,27.85ZM439.81,261.1c8.03-.28,12.23-6.07,12.08-12.66-.16-6.72-5.08-11.62-12.58-11.69l-14.64-.14-.18,25.03,15.31-.53Z"/>
    <polygon points="1078.52 271.97 1053.44 272.29 1053.58 295.78 1087.15 295.76 1087.28 307.91 1039.41 307.9 1039.42 224.56 1084.23 224.52 1084.18 236.37 1053.48 236.55 1053.42 259.98 1078.28 259.89 1078.52 271.97"/>
    <path d="M611.71,164.54c-8.02,17.9-34.09,17.22-49.39,10.92-.75-3.92-.96-8.58-.84-12.79,11.56,5.83,36.32,9.95,37.8-5.5.46-4.79-2.06-9.47-6.86-11.6l-17.85-7.95c-11.7-5.21-17.22-19.08-10.31-30.36,8.86-14.45,28.95-14.94,43.74-9.51l.14,11.65c-10.37-4.24-31.11-6.86-32.33,6.42-.98,10.73,12.15,12.02,25.36,18.71,11.08,5.62,15.61,18.67,10.53,30.01Z"/>
    <path d="M203.24,235.43l13.48-69.22c2.28-11.72,7.17-21.67,17.23-28.51,8.72-5.28,18.49-8.79,29.6-8.87l-60.31,106.6Z"/>
    <path d="M81.3,268.19L.6,231.04l.34-42.79,29.14,28.5c17.15,16.77,33.83,32.5,51.21,51.45Z"/>
    <path d="M249.73,269.41c8.93-10.97,18.74-19.72,28.68-29.12l46.62-46.04.08,39.61-75.38,35.56Z"/>
    <path d="M72.56,286.33L.05,269.63l-.02-32.58,33.27,22.35c13.17,8.85,26.11,16.75,39.26,26.92Z"/>
    <polygon points="71.99 307.48 0 307.98 .02 276.09 71.99 307.48"/>
    <path d="M550.61,100.49v78.13s-14.05.3-14.05.3l.02-83.01,12.53-.32c.44.59,1.5,3.51,1.5,4.91Z"/>
    <path d="M258.05,287.39c5.66-5.77,11.89-9.57,18.53-13.94l48.56-31.98.06,30.54-67.15,15.38Z"/>
    <polygon points="325.28 307.93 258.33 307.73 325.06 279.22 325.28 307.93"/>
    <path d="M1109.05,273.24c9.76-1.53,18.43,5.75,19.69,14.64,1.35,9.52-5.09,18.36-14.91,19.73-8.73,1.22-17.66-4.92-19.33-14.05s3.9-18.65,14.56-20.32ZM1125.47,290.47c0-9.27-6.91-15.15-15-14.62-7.5.5-13.16,6.8-12.95,15.05s6.33,13.98,13.97,14.05,14-5.92,13.99-14.48Z"/>
    <path d="M1119.19,300.31c-6.11-2-4.77-6.32-9.71-10-1.02,1.76-1.77,4.39-1.63,6.4l.17,2.57c.05.68-3.01.82-3.02.08l-.16-18.71,10.39-.08c2.31-.02,4.49,3.37,4.3,5.87-.14,1.94-2.33,4.07-4.6,5.54l4.26,8.33ZM1113.76,283c-2.67-.19-5.6-.11-5.73,1.05s-.33,4.37.72,4.88c.29.14,7.01,1.14,7.69-2.54.19-1.02-1.59-3.32-2.68-3.4Z"/>
  </g>
</svg>