<svg xmlns="http://www.w3.org/2000/svg" viewBox="0 0 211 50" fill="#9CA3AF">
<rect x="27" y="1" width="2" height="1"/>
<rect x="26" y="2" width="4" height="1"/>
<rect x="18" y="3" width="6" height="1"/>
<rect x="26" y="3" width="8" height="1"/>
<rect x="36" y="3" width="3" height="1"/>
<rect x="17" y="4" width="17" height="1"/>
<rect x="36" y="4" width="3" height="1"/>
<rect x="16" y="5" width="11" height="1"/>
<rect x="29" y="5" width="5" height="1"/>
<rect x="36" y="5" width="3" height="1"/>
<rect x="43" y="5" width="2" height="1"/>
<rect x="74" y="5" width="2" height="1"/>
<rect x="79" y="5" width="2" height="1"/>
<rect x="84" y="5" width="2" height="1"/>
<rect x="89" y="5" width="8" height="1"/>
<rect x="100" y="5" width="4" height="1"/>
<rect x="107" y="5" width="2" height="1"/>
<rect x="111" y="5" width="2" height="1"/>
<rect x="116" y="5" width="3" height="1"/>
<rect x="122" y="5" width="2" height="1"/>
<rect x="132" y="5" width="4" height="1"/>
<rect x="137" y="5" width="2" height="1"/>
<rect x="142" y="5" width="2" height="1"/>
<rect x="145" y="5" width="4" height="1"/>
<rect x="151" y="5" width="5" height="1"/>
<rect x="158" y="5" width="2" height="1"/>
<rect x="163" y="5" width="4" height="1"/>
<rect x="168" y="5" width="2" height="1"/>
<rect x="173" y="5" width="2" height="1"/>
<rect x="176" y="5" width="2" height="1"/>
<rect x="181" y="5" width="2" height="1"/>
<rect x="186" y="5" width="2" height="1"/>
<rect x="189" y="5" width="2" height="1"/>
<rect x="194" y="5" width="2" height="1"/>
<rect x="200" y="5" width="2" height="1"/>
<rect x="203" y="5" width="2" height="1"/>
<rect x="208" y="5" width="2" height="1"/>
<rect x="10" y="6" width="3" height="1"/>
<rect x="15" y="6" width="12" height="1"/>
<rect x="29" y="6" width="5" height="1"/>
<rect x="36" y="6" width="3" height="1"/>
<rect x="41" y="6" width="6" height="1"/>
<rect x="74" y="6" width="3" height="1"/>
<rect x="78" y="6" width="3" height="1"/>
<rect x="83" y="6" width="3" height="1"/>
<rect x="89" y="6" width="9" height="1"/>
<rect x="99" y="6" width="6" height="1"/>
<rect x="106" y="6" width="3" height="1"/>
<rect x="111" y="6" width="2" height="1"/>
<rect x="116" y="6" width="3" height="1"/>
<rect x="121" y="6" width="3" height="1"/>
<rect x="130" y="6" width="9" height="1"/>
<rect x="141" y="6" width="9" height="1"/>
<rect x="151" y="6" width="6" height="1"/>
<rect x="158" y="6" width="2" height="1"/>
<rect x="162" y="6" width="8" height="1"/>
<rect x="173" y="6" width="5" height="1"/>
<rect x="181" y="6" width="3" height="1"/>
<rect x="186" y="6" width="2" height="1"/>
<rect x="189" y="6" width="2" height="1"/>
<rect x="193" y="6" width="3" height="1"/>
<rect x="200" y="6" width="2" height="1"/>
<rect x="203" y="6" width="2" height="1"/>
<rect x="207" y="6" width="3" height="1"/>
<rect x="9" y="7" width="5" height="1"/>
<rect x="15" y="7" width="12" height="1"/>
<rect x="30" y="7" width="4" height="1"/>
<rect x="36" y="7" width="3" height="1"/>
<rect x="41" y="7" width="6" height="1"/>
<rect x="74" y="7" width="3" height="1"/>
<rect x="79" y="7" width="2" height="1"/>
<rect x="83" y="7" width="4" height="1"/>
<rect x="90" y="7" width="3" height="1"/>
<rect x="95" y="7" width="2" height="1"/>
<rect x="98" y="7" width="3" height="1"/>
<rect x="103" y="7" width="7" height="1"/>
<rect x="111" y="7" width="2" height="1"/>
<rect x="116" y="7" width="3" height="1"/>
<rect x="122" y="7" width="2" height="1"/>
<rect x="130" y="7" width="3" height="1"/>
<rect x="134" y="7" width="2" height="1"/>
<rect x="137" y="7" width="2" height="1"/>
<rect x="141" y="7" width="6" height="1"/>
<rect x="148" y="7" width="6" height="1"/>
<rect x="155" y="7" width="5" height="1"/>
<rect x="161" y="7" width="3" height="1"/>
<rect x="165" y="7" width="5" height="1"/>
<rect x="173" y="7" width="2" height="1"/>
<rect x="176" y="7" width="2" height="1"/>
<rect x="181" y="7" width="2" height="1"/>
<rect x="186" y="7" width="2" height="1"/>
<rect x="189" y="7" width="3" height="1"/>
<rect x="193" y="7" width="3" height="1"/>
<rect x="200" y="7" width="2" height="1"/>
<rect x="203" y="7" width="3" height="1"/>
<rect x="207" y="7" width="3" height="1"/>
<rect x="9" y="8" width="5" height="1"/>
<rect x="15" y="8" width="13" height="1"/>
<rect x="30" y="8" width="4" height="1"/>
<rect x="36" y="8" width="3" height="1"/>
<rect x="41" y="8" width="9" height="1"/>
<rect x="74" y="8" width="4" height="1"/>
<rect x="79" y="8" width="2" height="1"/>
<rect x="83" y="8" width="4" height="1"/>
<rect x="91" y="8" width="2" height="1"/>
<rect x="95" y="8" width="2" height="1"/>
<rect x="98" y="8" width="2" height="1"/>
<rect x="103" y="8" width="10" height="1"/>
<rect x="115" y="8" width="5" height="1"/>
<rect x="122" y="8" width="2" height="1"/>
<rect x="130" y="8" width="2" height="1"/>
<rect x="137" y="8" width="2" height="1"/>
<rect x="141" y="8" width="6" height="1"/>
<rect x="148" y="8" width="6" height="1"/>
<rect x="155" y="8" width="5" height="1"/>
<rect x="161" y="8" width="2" height="1"/>
<rect x="168" y="8" width="2" height="1"/>
<rect x="173" y="8" width="2" height="1"/>
<rect x="176" y="8" width="2" height="1"/>
<rect x="181" y="8" width="2" height="1"/>
<rect x="186" y="8" width="2" height="1"/>
<rect x="189" y="8" width="7" height="1"/>
<rect x="200" y="8" width="2" height="1"/>
<rect x="203" y="8" width="7" height="1"/>
<rect x="10" y="9" width="3" height="1"/>
<rect x="15" y="9" width="13" height="1"/>
<rect x="29" y="9" width="6" height="1"/>
<rect x="37" y="9" width="2" height="1"/>
<rect x="41" y="9" width="10" height="1"/>
<rect x="53" y="9" width="2" height="1"/>
<rect x="74" y="9" width="7" height="1"/>
<rect x="82" y="9" width="6" height="1"/>
<rect x="91" y="9" width="2" height="1"/>
<rect x="95" y="9" width="2" height="1"/>
<rect x="98" y="9" width="2" height="1"/>
<rect x="104" y="9" width="9" height="1"/>
<rect x="115" y="9" width="5" height="1"/>
<rect x="122" y="9" width="2" height="1"/>
<rect x="130" y="9" width="2" height="1"/>
<rect x="137" y="9" width="2" height="1"/>
<rect x="142" y="9" width="8" height="1"/>
<rect x="151" y="9" width="6" height="1"/>
<rect x="158" y="9" width="2" height="1"/>
<rect x="161" y="9" width="2" height="1"/>
<rect x="168" y="9" width="2" height="1"/>
<rect x="173" y="9" width="2" height="1"/>
<rect x="176" y="9" width="2" height="1"/>
<rect x="181" y="9" width="2" height="1"/>
<rect x="186" y="9" width="2" height="1"/>
<rect x="189" y="9" width="7" height="1"/>
<rect x="200" y="9" width="2" height="1"/>
<rect x="203" y="9" width="7" height="1"/>
<rect x="11" y="10" width="3" height="1"/>
<rect x="15" y="10" width="13" height="1"/>
<rect x="29" y="10" width="6" height="1"/>
<rect x="37" y="10" width="2" height="1"/>
<rect x="41" y="10" width="16" height="1"/>
<rect x="74" y="10" width="2" height="1"/>
<rect x="77" y="10" width="4" height="1"/>
<rect x="82" y="10" width="6" height="1"/>
<rect x="91" y="10" width="2" height="1"/>
<rect x="95" y="10" width="2" height="1"/>
<rect x="98" y="10" width="3" height="1"/>
<rect x="103" y="10" width="6" height="1"/>
<rect x="110" y="10" width="3" height="1"/>
<rect x="114" y="10" width="7" height="1"/>
<rect x="122" y="10" width="2" height="1"/>
<rect x="130" y="10" width="3" height="1"/>
<rect x="135" y="10" width="1" height="1"/>
<rect x="137" y="10" width="2" height="1"/>
<rect x="141" y="10" width="9" height="1"/>
<rect x="151" y="10" width="6" height="1"/>
<rect x="158" y="10" width="6" height="1"/>
<rect x="166" y="10" width="1" height="1"/>
<rect x="168" y="10" width="3" height="1"/>
<rect x="172" y="10" width="6" height="1"/>
<rect x="181" y="10" width="3" height="1"/>
<rect x="185" y="10" width="8" height="1"/>
<rect x="194" y="10" width="2" height="1"/>
<rect x="200" y="10" width="2" height="1"/>
<rect x="203" y="10" width="2" height="1"/>
<rect x="206" y="10" width="4" height="1"/>
<rect x="9" y="11" width="19" height="1"/>
<rect x="30" y="11" width="4" height="1"/>
<rect x="37" y="11" width="9" height="1"/>
<rect x="48" y="11" width="10" height="1"/>
<rect x="74" y="11" width="2" height="1"/>
<rect x="78" y="11" width="6" height="1"/>
<rect x="86" y="11" width="2" height="1"/>
<rect x="90" y="11" width="3" height="1"/>
<rect x="95" y="11" width="3" height="1"/>
<rect x="99" y="11" width="6" height="1"/>
<rect x="106" y="11" width="3" height="1"/>
<rect x="110" y="11" width="3" height="1"/>
<rect x="114" y="11" width="2" height="1"/>
<rect x="118" y="11" width="9" height="1"/>
<rect x="130" y="11" width="13" height="1"/>
<rect x="144" y="11" width="3" height="1"/>
<rect x="148" y="11" width="2" height="1"/>
<rect x="151" y="11" width="2" height="1"/>
<rect x="155" y="11" width="2" height="1"/>
<rect x="158" y="11" width="3" height="1"/>
<rect x="162" y="11" width="6" height="1"/>
<rect x="169" y="11" width="5" height="1"/>
<rect x="176" y="11" width="15" height="1"/>
<rect x="194" y="11" width="2" height="1"/>
<rect x="200" y="11" width="2" height="1"/>
<rect x="203" y="11" width="2" height="1"/>
<rect x="207" y="11" width="3" height="1"/>
<rect x="8" y="12" width="19" height="1"/>
<rect x="30" y="12" width="6" height="1"/>
<rect x="37" y="12" width="6" height="1"/>
<rect x="46" y="12" width="3" height="1"/>
<rect x="50" y="12" width="8" height="1"/>
<rect x="74" y="12" width="2" height="1"/>
<rect x="79" y="12" width="4" height="1"/>
<rect x="86" y="12" width="3" height="1"/>
<rect x="91" y="12" width="2" height="1"/>
<rect x="95" y="12" width="2" height="1"/>
<rect x="100" y="12" width="4" height="1"/>
<rect x="106" y="12" width="2" height="1"/>
<rect x="111" y="12" width="2" height="1"/>
<rect x="114" y="12" width="2" height="1"/>
<rect x="119" y="12" width="8" height="1"/>
<rect x="131" y="12" width="5" height="1"/>
<rect x="138" y="12" width="5" height="1"/>
<rect x="144" y="12" width="2" height="1"/>
<rect x="148" y="12" width="5" height="1"/>
<rect x="155" y="12" width="5" height="1"/>
<rect x="163" y="12" width="4" height="1"/>
<rect x="169" y="12" width="5" height="1"/>
<rect x="176" y="12" width="5" height="1"/>
<rect x="183" y="12" width="4" height="1"/>
<rect x="189" y="12" width="2" height="1"/>
<rect x="194" y="12" width="2" height="1"/>
<rect x="200" y="12" width="2" height="1"/>
<rect x="203" y="12" width="2" height="1"/>
<rect x="207" y="12" width="3" height="1"/>
<rect x="3" y="13" width="23" height="1"/>
<rect x="28" y="13" width="2" height="1"/>
<rect x="32" y="13" width="4" height="1"/>
<rect x="37" y="13" width="6" height="1"/>
<rect x="45" y="13" width="13" height="1"/>
<rect x="3" y="14" width="13" height="1"/>
<rect x="17" y="14" width="14" height="1"/>
<rect x="32" y="14" width="4" height="1"/>
<rect x="37" y="14" width="2" height="1"/>
<rect x="40" y="14" width="2" height="1"/>
<rect x="44" y="14" width="14" height="1"/>
<rect x="2" y="15" width="13" height="1"/>
<rect x="18" y="15" width="6" height="1"/>
<rect x="25" y="15" width="7" height="1"/>
<rect x="33" y="15" width="2" height="1"/>
<rect x="36" y="15" width="3" height="1"/>
<rect x="40" y="15" width="3" height="1"/>
<rect x="44" y="15" width="13" height="1"/>
<rect x="2" y="16" width="13" height="1"/>
<rect x="25" y="16" width="9" height="1"/>
<rect x="36" y="16" width="2" height="1"/>
<rect x="39" y="16" width="18" height="1"/>
<rect x="58" y="16" width="4" height="1"/>
<rect x="3" y="17" width="5" height="1"/>
<rect x="11" y="17" width="9" height="1"/>
<rect x="22" y="17" width="13" height="1"/>
<rect x="36" y="17" width="2" height="1"/>
<rect x="39" y="17" width="11" height="1"/>
<rect x="53" y="17" width="2" height="1"/>
<rect x="57" y="17" width="6" height="1"/>
<rect x="74" y="17" width="8" height="1"/>
<rect x="86" y="17" width="9" height="1"/>
<rect x="97" y="17" width="7" height="1"/>
<rect x="108" y="17" width="8" height="1"/>
<rect x="123" y="17" width="6" height="1"/>
<rect x="134" y="17" width="7" height="1"/>
<rect x="147" y="17" width="2" height="1"/>
<rect x="155" y="17" width="2" height="1"/>
<rect x="162" y="17" width="6" height="1"/>
<rect x="171" y="17" width="10" height="1"/>
<rect x="183" y="17" width="2" height="1"/>
<rect x="187" y="17" width="3" height="1"/>
<rect x="196" y="17" width="3" height="1"/>
<rect x="200" y="17" width="9" height="1"/>
<rect x="4" y="18" width="4" height="1"/>
<rect x="12" y="18" width="9" height="1"/>
<rect x="22" y="18" width="3" height="1"/>
<rect x="26" y="18" width="9" height="1"/>
<rect x="36" y="18" width="2" height="1"/>
<rect x="39" y="18" width="5" height="1"/>
<rect x="46" y="18" width="6" height="1"/>
<rect x="56" y="18" width="8" height="1"/>
<rect x="74" y="18" width="9" height="1"/>
<rect x="86" y="18" width="9" height="1"/>
<rect x="97" y="18" width="9" height="1"/>
<rect x="108" y="18" width="9" height="1"/>
<rect x="121" y="18" width="9" height="1"/>
<rect x="134" y="18" width="9" height="1"/>
<rect x="147" y="18" width="3" height="1"/>
<rect x="154" y="18" width="4" height="1"/>
<rect x="161" y="18" width="9" height="1"/>
<rect x="171" y="18" width="10" height="1"/>
<rect x="182" y="18" width="3" height="1"/>
<rect x="187" y="18" width="3" height="1"/>
<rect x="195" y="18" width="4" height="1"/>
<rect x="200" y="18" width="10" height="1"/>
<rect x="5" y="19" width="2" height="1"/>
<rect x="11" y="19" width="13" height="1"/>
<rect x="26" y="19" width="11" height="1"/>
<rect x="40" y="19" width="3" height="1"/>
<rect x="46" y="19" width="7" height="1"/>
<rect x="56" y="19" width="8" height="1"/>
<rect x="74" y="19" width="10" height="1"/>
<rect x="86" y="19" width="9" height="1"/>
<rect x="97" y="19" width="9" height="1"/>
<rect x="108" y="19" width="10" height="1"/>
<rect x="121" y="19" width="10" height="1"/>
<rect x="134" y="19" width="10" height="1"/>
<rect x="147" y="19" width="3" height="1"/>
<rect x="154" y="19" width="4" height="1"/>
<rect x="160" y="19" width="10" height="1"/>
<rect x="171" y="19" width="10" height="1"/>
<rect x="182" y="19" width="3" height="1"/>
<rect x="187" y="19" width="4" height="1"/>
<rect x="195" y="19" width="3" height="1"/>
<rect x="200" y="19" width="9" height="1"/>
<rect x="3" y="20" width="5" height="1"/>
<rect x="11" y="20" width="12" height="1"/>
<rect x="24" y="20" width="2" height="1"/>
<rect x="28" y="20" width="8" height="1"/>
<rect x="37" y="20" width="3" height="1"/>
<rect x="43" y="20" width="1" height="1"/>
<rect x="45" y="20" width="9" height="1"/>
<rect x="57" y="20" width="6" height="1"/>
<rect x="74" y="20" width="3" height="1"/>
<rect x="81" y="20" width="3" height="1"/>
<rect x="86" y="20" width="3" height="1"/>
<rect x="97" y="20" width="3" height="1"/>
<rect x="103" y="20" width="4" height="1"/>
<rect x="108" y="20" width="3" height="1"/>
<rect x="115" y="20" width="3" height="1"/>
<rect x="120" y="20" width="4" height="1"/>
<rect x="128" y="20" width="4" height="1"/>
<rect x="134" y="20" width="3" height="1"/>
<rect x="141" y="20" width="4" height="1"/>
<rect x="147" y="20" width="3" height="1"/>
<rect x="154" y="20" width="4" height="1"/>
<rect x="159" y="20" width="4" height="1"/>
<rect x="167" y="20" width="2" height="1"/>
<rect x="174" y="20" width="3" height="1"/>
<rect x="182" y="20" width="3" height="1"/>
<rect x="188" y="20" width="3" height="1"/>
<rect x="194" y="20" width="4" height="1"/>
<rect x="200" y="20" width="3" height="1"/>
<rect x="2" y="21" width="7" height="1"/>
<rect x="10" y="21" width="13" height="1"/>
<rect x="24" y="21" width="3" height="1"/>
<rect x="28" y="21" width="16" height="1"/>
<rect x="45" y="21" width="9" height="1"/>
<rect x="57" y="21" width="6" height="1"/>
<rect x="74" y="21" width="3" height="1"/>
<rect x="81" y="21" width="3" height="1"/>
<rect x="86" y="21" width="3" height="1"/>
<rect x="97" y="21" width="3" height="1"/>
<rect x="104" y="21" width="3" height="1"/>
<rect x="108" y="21" width="3" height="1"/>
<rect x="115" y="21" width="3" height="1"/>
<rect x="120" y="21" width="3" height="1"/>
<rect x="129" y="21" width="3" height="1"/>
<rect x="134" y="21" width="3" height="1"/>
<rect x="142" y="21" width="3" height="1"/>
<rect x="147" y="21" width="3" height="1"/>
<rect x="154" y="21" width="4" height="1"/>
<rect x="159" y="21" width="3" height="1"/>
<rect x="174" y="21" width="3" height="1"/>
<rect x="182" y="21" width="3" height="1"/>
<rect x="188" y="21" width="3" height="1"/>
<rect x="194" y="21" width="3" height="1"/>
<rect x="200" y="21" width="3" height="1"/>
<rect x="2" y="22" width="7" height="1"/>
<rect x="10" y="22" width="13" height="1"/>
<rect x="24" y="22" width="3" height="1"/>
<rect x="28" y="22" width="16" height="1"/>
<rect x="45" y="22" width="9" height="1"/>
<rect x="59" y="22" width="2" height="1"/>
<rect x="74" y="22" width="3" height="1"/>
<rect x="81" y="22" width="3" height="1"/>
<rect x="86" y="22" width="8" height="1"/>
<rect x="97" y="22" width="3" height="1"/>
<rect x="103" y="22" width="4" height="1"/>
<rect x="108" y="22" width="3" height="1"/>
<rect x="115" y="22" width="3" height="1"/>
<rect x="119" y="22" width="4" height="1"/>
<rect x="129" y="22" width="3" height="1"/>
<rect x="134" y="22" width="3" height="1"/>
<rect x="142" y="22" width="3" height="1"/>
<rect x="147" y="22" width="3" height="1"/>
<rect x="154" y="22" width="4" height="1"/>
<rect x="159" y="22" width="3" height="1"/>
<rect x="174" y="22" width="3" height="1"/>
<rect x="182" y="22" width="3" height="1"/>
<rect x="188" y="22" width="4" height="1"/>
<rect x="194" y="22" width="3" height="1"/>
<rect x="200" y="22" width="9" height="1"/>
<rect x="2" y="23" width="7" height="1"/>
<rect x="10" y="23" width="13" height="1"/>
<rect x="24" y="23" width="3" height="1"/>
<rect x="29" y="23" width="11" height="1"/>
<rect x="41" y="23" width="2" height="1"/>
<rect x="45" y="23" width="9" height="1"/>
<rect x="55" y="23" width="5" height="1"/>
<rect x="74" y="23" width="10" height="1"/>
<rect x="86" y="23" width="9" height="1"/>
<rect x="97" y="23" width="9" height="1"/>
<rect x="108" y="23" width="10" height="1"/>
<rect x="119" y="23" width="4" height="1"/>
<rect x="129" y="23" width="3" height="1"/>
<rect x="134" y="23" width="3" height="1"/>
<rect x="142" y="23" width="3" height="1"/>
<rect x="147" y="23" width="3" height="1"/>
<rect x="154" y="23" width="4" height="1"/>
<rect x="159" y="23" width="3" height="1"/>
<rect x="174" y="23" width="3" height="1"/>
<rect x="182" y="23" width="3" height="1"/>
<rect x="189" y="23" width="3" height="1"/>
<rect x="193" y="23" width="4" height="1"/>
<rect x="200" y="23" width="9" height="1"/>
<rect x="2" y="24" width="7" height="1"/>
<rect x="10" y="24" width="13" height="1"/>
<rect x="29" y="24" width="14" height="1"/>
<rect x="46" y="24" width="7" height="1"/>
<rect x="54" y="24" width="7" height="1"/>
<rect x="74" y="24" width="9" height="1"/>
<rect x="86" y="24" width="8" height="1"/>
<rect x="97" y="24" width="9" height="1"/>
<rect x="108" y="24" width="9" height="1"/>
<rect x="119" y="24" width="4" height="1"/>
<rect x="129" y="24" width="3" height="1"/>
<rect x="134" y="24" width="3" height="1"/>
<rect x="142" y="24" width="3" height="1"/>
<rect x="147" y="24" width="3" height="1"/>
<rect x="154" y="24" width="4" height="1"/>
<rect x="159" y="24" width="3" height="1"/>
<rect x="174" y="24" width="3" height="1"/>
<rect x="182" y="24" width="3" height="1"/>
<rect x="189" y="24" width="3" height="1"/>
<rect x="193" y="24" width="3" height="1"/>
<rect x="200" y="24" width="9" height="1"/>
<rect x="2" y="25" width="7" height="1"/>
<rect x="11" y="25" width="12" height="1"/>
<rect x="24" y="25" width="5" height="1"/>
<rect x="30" y="25" width="12" height="1"/>
<rect x="46" y="25" width="7" height="1"/>
<rect x="54" y="25" width="7" height="1"/>
<rect x="74" y="25" width="8" height="1"/>
<rect x="86" y="25" width="3" height="1"/>
<rect x="97" y="25" width="7" height="1"/>
<rect x="108" y="25" width="8" height="1"/>
<rect x="120" y="25" width="3" height="1"/>
<rect x="129" y="25" width="3" height="1"/>
<rect x="134" y="25" width="3" height="1"/>
<rect x="142" y="25" width="3" height="1"/>
<rect x="147" y="25" width="3" height="1"/>
<rect x="154" y="25" width="4" height="1"/>
<rect x="159" y="25" width="4" height="1"/>
<rect x="174" y="25" width="3" height="1"/>
<rect x="182" y="25" width="3" height="1"/>
<rect x="190" y="25" width="6" height="1"/>
<rect x="200" y="25" width="3" height="1"/>
<rect x="3" y="26" width="5" height="1"/>
<rect x="9" y="26" width="1" height="1"/>
<rect x="11" y="26" width="11" height="1"/>
<rect x="23" y="26" width="7" height="1"/>
<rect x="40" y="26" width="7" height="1"/>
<rect x="48" y="26" width="3" height="1"/>
<rect x="54" y="26" width="7" height="1"/>
<rect x="74" y="26" width="3" height="1"/>
<rect x="79" y="26" width="4" height="1"/>
<rect x="86" y="26" width="3" height="1"/>
<rect x="97" y="26" width="3" height="1"/>
<rect x="108" y="26" width="3" height="1"/>
<rect x="113" y="26" width="4" height="1"/>
<rect x="120" y="26" width="4" height="1"/>
<rect x="128" y="26" width="4" height="1"/>
<rect x="134" y="26" width="3" height="1"/>
<rect x="140" y="26" width="5" height="1"/>
<rect x="147" y="26" width="4" height="1"/>
<rect x="154" y="26" width="3" height="1"/>
<rect x="159" y="26" width="5" height="1"/>
<rect x="167" y="26" width="3" height="1"/>
<rect x="174" y="26" width="3" height="1"/>
<rect x="182" y="26" width="3" height="1"/>
<rect x="190" y="26" width="5" height="1"/>
<rect x="200" y="26" width="3" height="1"/>
<rect x="8" y="27" width="13" height="1"/>
<rect x="22" y="27" width="9" height="1"/>
<rect x="33" y="27" width="2" height="1"/>
<rect x="40" y="27" width="9" height="1"/>
<rect x="54" y="27" width="7" height="1"/>
<rect x="74" y="27" width="3" height="1"/>
<rect x="80" y="27" width="3" height="1"/>
<rect x="86" y="27" width="9" height="1"/>
<rect x="97" y="27" width="3" height="1"/>
<rect x="108" y="27" width="3" height="1"/>
<rect x="114" y="27" width="4" height="1"/>
<rect x="121" y="27" width="10" height="1"/>
<rect x="134" y="27" width="10" height="1"/>
<rect x="147" y="27" width="10" height="1"/>
<rect x="160" y="27" width="10" height="1"/>
<rect x="174" y="27" width="3" height="1"/>
<rect x="182" y="27" width="3" height="1"/>
<rect x="191" y="27" width="4" height="1"/>
<rect x="200" y="27" width="9" height="1"/>
<rect x="7" y="28" width="5" height="1"/>
<rect x="13" y="28" width="7" height="1"/>
<rect x="22" y="28" width="9" height="1"/>
<rect x="32" y="28" width="4" height="1"/>
<rect x="39" y="28" width="10" height="1"/>
<rect x="51" y="28" width="9" height="1"/>
<rect x="74" y="28" width="3" height="1"/>
<rect x="80" y="28" width="4" height="1"/>
<rect x="86" y="28" width="9" height="1"/>
<rect x="97" y="28" width="3" height="1"/>
<rect x="108" y="28" width="3" height="1"/>
<rect x="115" y="28" width="3" height="1"/>
<rect x="122" y="28" width="8" height="1"/>
<rect x="134" y="28" width="9" height="1"/>
<rect x="148" y="28" width="8" height="1"/>
<rect x="161" y="28" width="8" height="1"/>
<rect x="174" y="28" width="3" height="1"/>
<rect x="182" y="28" width="3" height="1"/>
<rect x="191" y="28" width="4" height="1"/>
<rect x="200" y="28" width="10" height="1"/>
<rect x="7" y="29" width="6" height="1"/>
<rect x="15" y="29" width="4" height="1"/>
<rect x="22" y="29" width="9" height="1"/>
<rect x="32" y="29" width="4" height="1"/>
<rect x="38" y="29" width="21" height="1"/>
<rect x="74" y="29" width="2" height="1"/>
<rect x="81" y="29" width="3" height="1"/>
<rect x="86" y="29" width="9" height="1"/>
<rect x="97" y="29" width="2" height="1"/>
<rect x="108" y="29" width="3" height="1"/>
<rect x="115" y="29" width="3" height="1"/>
<rect x="123" y="29" width="5" height="1"/>
<rect x="134" y="29" width="7" height="1"/>
<rect x="150" y="29" width="5" height="1"/>
<rect x="163" y="29" width="5" height="1"/>
<rect x="175" y="29" width="2" height="1"/>
<rect x="183" y="29" width="2" height="1"/>
<rect x="191" y="29" width="3" height="1"/>
<rect x="200" y="29" width="9" height="1"/>
<rect x="7" y="30" width="5" height="1"/>
<rect x="15" y="30" width="6" height="1"/>
<rect x="22" y="30" width="9" height="1"/>
<rect x="33" y="30" width="2" height="1"/>
<rect x="38" y="30" width="19" height="1"/>
<rect x="8" y="31" width="4" height="1"/>
<rect x="15" y="31" width="6" height="1"/>
<rect x="22" y="31" width="9" height="1"/>
<rect x="38" y="31" width="19" height="1"/>
<rect x="14" y="32" width="8" height="1"/>
<rect x="23" y="32" width="7" height="1"/>
<rect x="31" y="32" width="4" height="1"/>
<rect x="38" y="32" width="19" height="1"/>
<rect x="77" y="32" width="1" height="1"/>
<rect x="88" y="32" width="2" height="1"/>
<rect x="104" y="32" width="1" height="1"/>
<rect x="111" y="32" width="3" height="1"/>
<rect x="120" y="32" width="1" height="1"/>
<rect x="127" y="32" width="1" height="1"/>
<rect x="133" y="32" width="1" height="1"/>
<rect x="142" y="32" width="1" height="1"/>
<rect x="155" y="32" width="3" height="1"/>
<rect x="166" y="32" width="1" height="1"/>
<rect x="172" y="32" width="1" height="1"/>
<rect x="181" y="32" width="1" height="1"/>
<rect x="14" y="33" width="8" height="1"/>
<rect x="24" y="33" width="5" height="1"/>
<rect x="30" y="33" width="6" height="1"/>
<rect x="39" y="33" width="10" height="1"/>
<rect x="50" y="33" width="6" height="1"/>
<rect x="74" y="33" width="8" height="1"/>
<rect x="86" y="33" width="7" height="1"/>
<rect x="94" y="33" width="4" height="1"/>
<rect x="102" y="33" width="4" height="1"/>
<rect x="109" y="33" width="8" height="1"/>
<rect x="119" y="33" width="3" height="1"/>
<rect x="127" y="33" width="3" height="1"/>
<rect x="132" y="33" width="3" height="1"/>
<rect x="141" y="33" width="3" height="1"/>
<rect x="149" y="33" width="10" height="1"/>
<rect x="161" y="33" width="8" height="1"/>
<rect x="171" y="33" width="4" height="1"/>
<rect x="179" y="33" width="4" height="1"/>
<rect x="15" y="34" width="7" height="1"/>
<rect x="29" y="34" width="8" height="1"/>
<rect x="39" y="34" width="10" height="1"/>
<rect x="51" y="34" width="4" height="1"/>
<rect x="74" y="34" width="9" height="1"/>
<rect x="85" y="34" width="8" height="1"/>
<rect x="94" y="34" width="4" height="1"/>
<rect x="102" y="34" width="3" height="1"/>
<rect x="108" y="34" width="10" height="1"/>
<rect x="119" y="34" width="3" height="1"/>
<rect x="126" y="34" width="4" height="1"/>
<rect x="132" y="34" width="3" height="1"/>
<rect x="140" y="34" width="5" height="1"/>
<rect x="149" y="34" width="10" height="1"/>
<rect x="161" y="34" width="9" height="1"/>
<rect x="172" y="34" width="3" height="1"/>
<rect x="179" y="34" width="3" height="1"/>
<rect x="15" y="35" width="6" height="1"/>
<rect x="29" y="35" width="8" height="1"/>
<rect x="40" y="35" width="8" height="1"/>
<rect x="74" y="35" width="3" height="1"/>
<rect x="79" y="35" width="4" height="1"/>
<rect x="84" y="35" width="4" height="1"/>
<rect x="90" y="35" width="3" height="1"/>
<rect x="95" y="35" width="4" height="1"/>
<rect x="101" y="35" width="3" height="1"/>
<rect x="107" y="35" width="4" height="1"/>
<rect x="114" y="35" width="3" height="1"/>
<rect x="119" y="35" width="3" height="1"/>
<rect x="126" y="35" width="4" height="1"/>
<rect x="132" y="35" width="3" height="1"/>
<rect x="140" y="35" width="5" height="1"/>
<rect x="150" y="35" width="1" height="1"/>
<rect x="152" y="35" width="4" height="1"/>
<rect x="157" y="35" width="1" height="1"/>
<rect x="160" y="35" width="4" height="1"/>
<rect x="167" y="35" width="4" height="1"/>
<rect x="172" y="35" width="4" height="1"/>
<rect x="178" y="35" width="4" height="1"/>
<rect x="16" y="36" width="4" height="1"/>
<rect x="29" y="36" width="7" height="1"/>
<rect x="38" y="36" width="1" height="1"/>
<rect x="41" y="36" width="6" height="1"/>
<rect x="74" y="36" width="3" height="1"/>
<rect x="81" y="36" width="7" height="1"/>
<rect x="96" y="36" width="3" height="1"/>
<rect x="100" y="36" width="4" height="1"/>
<rect x="107" y="36" width="3" height="1"/>
<rect x="119" y="36" width="3" height="1"/>
<rect x="126" y="36" width="4" height="1"/>
<rect x="132" y="36" width="3" height="1"/>
<rect x="139" y="36" width="6" height="1"/>
<rect x="153" y="36" width="3" height="1"/>
<rect x="160" y="36" width="4" height="1"/>
<rect x="168" y="36" width="3" height="1"/>
<rect x="173" y="36" width="4" height="1"/>
<rect x="178" y="36" width="3" height="1"/>
<rect x="30" y="37" width="11" height="1"/>
<rect x="43" y="37" width="5" height="1"/>
<rect x="74" y="37" width="3" height="1"/>
<rect x="80" y="37" width="4" height="1"/>
<rect x="85" y="37" width="5" height="1"/>
<rect x="96" y="37" width="7" height="1"/>
<rect x="106" y="37" width="4" height="1"/>
<rect x="119" y="37" width="11" height="1"/>
<rect x="132" y="37" width="3" height="1"/>
<rect x="139" y="37" width="3" height="1"/>
<rect x="143" y="37" width="3" height="1"/>
<rect x="153" y="37" width="3" height="1"/>
<rect x="160" y="37" width="4" height="1"/>
<rect x="168" y="37" width="3" height="1"/>
<rect x="174" y="37" width="6" height="1"/>
<rect x="31" y="38" width="4" height="1"/>
<rect x="36" y="38" width="5" height="1"/>
<rect x="43" y="38" width="6" height="1"/>
<rect x="74" y="38" width="3" height="1"/>
<rect x="79" y="38" width="4" height="1"/>
<rect x="85" y="38" width="7" height="1"/>
<rect x="97" y="38" width="5" height="1"/>
<rect x="106" y="38" width="3" height="1"/>
<rect x="119" y="38" width="11" height="1"/>
<rect x="132" y="38" width="3" height="1"/>
<rect x="138" y="38" width="3" height="1"/>
<rect x="143" y="38" width="3" height="1"/>
<rect x="153" y="38" width="3" height="1"/>
<rect x="161" y="38" width="10" height="1"/>
<rect x="174" y="38" width="6" height="1"/>
<rect x="36" y="39" width="5" height="1"/>
<rect x="43" y="39" width="6" height="1"/>
<rect x="74" y="39" width="9" height="1"/>
<rect x="86" y="39" width="7" height="1"/>
<rect x="98" y="39" width="4" height="1"/>
<rect x="106" y="39" width="3" height="1"/>
<rect x="119" y="39" width="11" height="1"/>
<rect x="132" y="39" width="3" height="1"/>
<rect x="138" y="39" width="3" height="1"/>
<rect x="143" y="39" width="4" height="1"/>
<rect x="153" y="39" width="3" height="1"/>
<rect x="161" y="39" width="9" height="1"/>
<rect x="175" y="39" width="4" height="1"/>
<rect x="36" y="40" width="5" height="1"/>
<rect x="42" y="40" width="7" height="1"/>
<rect x="74" y="40" width="8" height="1"/>
<rect x="90" y="40" width="4" height="1"/>
<rect x="98" y="40" width="3" height="1"/>
<rect x="106" y="40" width="4" height="1"/>
<rect x="119" y="40" width="3" height="1"/>
<rect x="126" y="40" width="4" height="1"/>
<rect x="132" y="40" width="3" height="1"/>
<rect x="138" y="40" width="9" height="1"/>
<rect x="153" y="40" width="3" height="1"/>
<rect x="161" y="40" width="8" height="1"/>
<rect x="176" y="40" width="3" height="1"/>
<rect x="37" y="41" width="3" height="1"/>
<rect x="43" y="41" width="6" height="1"/>
<rect x="74" y="41" width="3" height="1"/>
<rect x="85" y="41" width="2" height="1"/>
<rect x="91" y="41" width="3" height="1"/>
<rect x="98" y="41" width="3" height="1"/>
<rect x="107" y="41" width="3" height="1"/>
<rect x="115" y="41" width="2" height="1"/>
<rect x="119" y="41" width="3" height="1"/>
<rect x="126" y="41" width="4" height="1"/>
<rect x="132" y="41" width="3" height="1"/>
<rect x="137" y="41" width="11" height="1"/>
<rect x="153" y="41" width="3" height="1"/>
<rect x="160" y="41" width="4" height="1"/>
<rect x="166" y="41" width="3" height="1"/>
<rect x="175" y="41" width="4" height="1"/>
<rect x="43" y="42" width="5" height="1"/>
<rect x="74" y="42" width="3" height="1"/>
<rect x="84" y="42" width="10" height="1"/>
<rect x="98" y="42" width="3" height="1"/>
<rect x="107" y="42" width="11" height="1"/>
<rect x="119" y="42" width="3" height="1"/>
<rect x="126" y="42" width="4" height="1"/>
<rect x="132" y="42" width="3" height="1"/>
<rect x="137" y="42" width="3" height="1"/>
<rect x="145" y="42" width="3" height="1"/>
<rect x="153" y="42" width="3" height="1"/>
<rect x="160" y="42" width="4" height="1"/>
<rect x="166" y="42" width="4" height="1"/>
<rect x="175" y="42" width="4" height="1"/>
<rect x="45" y="43" width="2" height="1"/>
<rect x="74" y="43" width="3" height="1"/>
<rect x="84" y="43" width="9" height="1"/>
<rect x="98" y="43" width="3" height="1"/>
<rect x="108" y="43" width="9" height="1"/>
<rect x="119" y="43" width="3" height="1"/>
<rect x="126" y="43" width="4" height="1"/>
<rect x="132" y="43" width="3" height="1"/>
<rect x="136" y="43" width="3" height="1"/>
<rect x="145" y="43" width="3" height="1"/>
<rect x="153" y="43" width="3" height="1"/>
<rect x="160" y="43" width="4" height="1"/>
<rect x="167" y="43" width="4" height="1"/>
<rect x="175" y="43" width="4" height="1"/>
<rect x="44" y="44" width="3" height="1"/>
<rect x="74" y="44" width="3" height="1"/>
<rect x="86" y="44" width="6" height="1"/>
<rect x="98" y="44" width="3" height="1"/>
<rect x="109" y="44" width="7" height="1"/>
<rect x="119" y="44" width="3" height="1"/>
<rect x="126" y="44" width="3" height="1"/>
<rect x="132" y="44" width="3" height="1"/>
<rect x="136" y="44" width="3" height="1"/>
<rect x="145" y="44" width="4" height="1"/>
<rect x="153" y="44" width="3" height="1"/>
<rect x="161" y="44" width="3" height="1"/>
<rect x="168" y="44" width="3" height="1"/>
<rect x="176" y="44" width="3" height="1"/>
<rect x="43" y="45" width="5" height="1"/>
<rect x="43" y="46" width="5" height="1"/>
<rect x="43" y="47" width="5" height="1"/>
<rect x="44" y="48" width="3" height="1"/>
</svg>