<svg xmlns="http://www.w3.org/2000/svg" viewBox="0 0 177 40" fill="#111827">
<rect x="74" y="0" width="2" height="1"/>
<rect x="0" y="1" width="10" height="1"/>
<rect x="49" y="1" width="5" height="1"/>
<rect x="74" y="1" width="3" height="1"/>
<rect x="120" y="1" width="11" height="1"/>
<rect x="147" y="1" width="5" height="1"/>
<rect x="0" y="2" width="11" height="1"/>
<rect x="49" y="2" width="5" height="1"/>
<rect x="74" y="2" width="4" height="1"/>
<rect x="120" y="2" width="11" height="1"/>
<rect x="147" y="2" width="5" height="1"/>
<rect x="0" y="3" width="11" height="1"/>
<rect x="49" y="3" width="5" height="1"/>
<rect x="74" y="3" width="4" height="1"/>
<rect x="120" y="3" width="11" height="1"/>
<rect x="147" y="3" width="5" height="1"/>
<rect x="0" y="4" width="12" height="1"/>
<rect x="49" y="4" width="5" height="1"/>
<rect x="74" y="4" width="5" height="1"/>
<rect x="120" y="4" width="11" height="1"/>
<rect x="147" y="4" width="5" height="1"/>
<rect x="0" y="5" width="12" height="1"/>
<rect x="49" y="5" width="5" height="1"/>
<rect x="74" y="5" width="5" height="1"/>
<rect x="120" y="5" width="11" height="1"/>
<rect x="147" y="5" width="5" height="1"/>
<rect x="0" y="6" width="5" height="1"/>
<rect x="7" y="6" width="5" height="1"/>
<rect x="49" y="6" width="5" height="1"/>
<rect x="74" y="6" width="5" height="1"/>
<rect x="123" y="6" width="5" height="1"/>
<rect x="147" y="6" width="5" height="1"/>
<rect x="0" y="7" width="5" height="1"/>
<rect x="7" y="7" width="5" height="1"/>
<rect x="15" y="7" width="6" height="1"/>
<rect x="24" y="7" width="5" height="1"/>
<rect x="31" y="7" width="5" height="1"/>
<rect x="39" y="7" width="7" height="1"/>
<rect x="49" y="7" width="10" height="1"/>
<rect x="64" y="7" width="6" height="1"/>
<rect x="74" y="7" width="5" height="1"/>
<rect x="82" y="7" width="6" height="1"/>
<rect x="94" y="7" width="6" height="1"/>
<rect x="103" y="7" width="5" height="1"/>
<rect x="110" y="7" width="5" height="1"/>
<rect x="123" y="7" width="5" height="1"/>
<rect x="131" y="7" width="7" height="1"/>
<rect x="143" y="7" width="9" height="1"/>
<rect x="154" y="7" width="9" height="1"/>
<rect x="165" y="7" width="5" height="1"/>
<rect x="172" y="7" width="5" height="1"/>
<rect x="0" y="8" width="5" height="1"/>
<rect x="7" y="8" width="5" height="1"/>
<rect x="14" y="8" width="8" height="1"/>
<rect x="24" y="8" width="5" height="1"/>
<rect x="31" y="8" width="5" height="1"/>
<rect x="38" y="8" width="9" height="1"/>
<rect x="49" y="8" width="11" height="1"/>
<rect x="63" y="8" width="9" height="1"/>
<rect x="74" y="8" width="5" height="1"/>
<rect x="81" y="8" width="8" height="1"/>
<rect x="93" y="8" width="8" height="1"/>
<rect x="103" y="8" width="6" height="1"/>
<rect x="110" y="8" width="5" height="1"/>
<rect x="123" y="8" width="5" height="1"/>
<rect x="130" y="8" width="9" height="1"/>
<rect x="142" y="8" width="10" height="1"/>
<rect x="154" y="8" width="10" height="1"/>
<rect x="165" y="8" width="5" height="1"/>
<rect x="172" y="8" width="5" height="1"/>
<rect x="0" y="9" width="5" height="1"/>
<rect x="7" y="9" width="5" height="1"/>
<rect x="13" y="9" width="10" height="1"/>
<rect x="24" y="9" width="5" height="1"/>
<rect x="31" y="9" width="5" height="1"/>
<rect x="37" y="9" width="11" height="1"/>
<rect x="49" y="9" width="11" height="1"/>
<rect x="62" y="9" width="10" height="1"/>
<rect x="74" y="9" width="5" height="1"/>
<rect x="80" y="9" width="10" height="1"/>
<rect x="92" y="9" width="10" height="1"/>
<rect x="103" y="9" width="6" height="1"/>
<rect x="110" y="9" width="5" height="1"/>
<rect x="123" y="9" width="5" height="1"/>
<rect x="129" y="9" width="10" height="1"/>
<rect x="141" y="9" width="11" height="1"/>
<rect x="154" y="9" width="10" height="1"/>
<rect x="165" y="9" width="5" height="1"/>
<rect x="172" y="9" width="5" height="1"/>
<rect x="0" y="10" width="5" height="1"/>
<rect x="7" y="10" width="16" height="1"/>
<rect x="24" y="10" width="5" height="1"/>
<rect x="31" y="10" width="5" height="1"/>
<rect x="37" y="10" width="11" height="1"/>
<rect x="49" y="10" width="12" height="1"/>
<rect x="62" y="10" width="11" height="1"/>
<rect x="74" y="10" width="16" height="1"/>
<rect x="92" y="10" width="17" height="1"/>
<rect x="110" y="10" width="5" height="1"/>
<rect x="123" y="10" width="5" height="1"/>
<rect x="129" y="10" width="11" height="1"/>
<rect x="141" y="10" width="11" height="1"/>
<rect x="154" y="10" width="16" height="1"/>
<rect x="172" y="10" width="5" height="1"/>
<rect x="0" y="11" width="5" height="1"/>
<rect x="7" y="11" width="16" height="1"/>
<rect x="24" y="11" width="5" height="1"/>
<rect x="31" y="11" width="5" height="1"/>
<rect x="37" y="11" width="11" height="1"/>
<rect x="49" y="11" width="12" height="1"/>
<rect x="62" y="11" width="11" height="1"/>
<rect x="74" y="11" width="4" height="1"/>
<rect x="79" y="11" width="12" height="1"/>
<rect x="92" y="11" width="17" height="1"/>
<rect x="110" y="11" width="5" height="1"/>
<rect x="123" y="11" width="5" height="1"/>
<rect x="129" y="11" width="11" height="1"/>
<rect x="141" y="11" width="11" height="1"/>
<rect x="154" y="11" width="16" height="1"/>
<rect x="172" y="11" width="5" height="1"/>
<rect x="0" y="12" width="5" height="1"/>
<rect x="7" y="12" width="10" height="1"/>
<rect x="19" y="12" width="10" height="1"/>
<rect x="31" y="12" width="5" height="1"/>
<rect x="37" y="12" width="5" height="1"/>
<rect x="43" y="12" width="5" height="1"/>
<rect x="49" y="12" width="5" height="1"/>
<rect x="56" y="12" width="5" height="1"/>
<rect x="62" y="12" width="5" height="1"/>
<rect x="68" y="12" width="5" height="1"/>
<rect x="74" y="12" width="4" height="1"/>
<rect x="79" y="12" width="5" height="1"/>
<rect x="86" y="12" width="10" height="1"/>
<rect x="98" y="12" width="5" height="1"/>
<rect x="104" y="12" width="5" height="1"/>
<rect x="110" y="12" width="5" height="1"/>
<rect x="123" y="12" width="5" height="1"/>
<rect x="129" y="12" width="5" height="1"/>
<rect x="135" y="12" width="5" height="1"/>
<rect x="141" y="12" width="5" height="1"/>
<rect x="147" y="12" width="5" height="1"/>
<rect x="160" y="12" width="10" height="1"/>
<rect x="172" y="12" width="5" height="1"/>
<rect x="0" y="13" width="5" height="1"/>
<rect x="7" y="13" width="10" height="1"/>
<rect x="18" y="13" width="11" height="1"/>
<rect x="31" y="13" width="5" height="1"/>
<rect x="37" y="13" width="5" height="1"/>
<rect x="43" y="13" width="5" height="1"/>
<rect x="49" y="13" width="5" height="1"/>
<rect x="56" y="13" width="5" height="1"/>
<rect x="62" y="13" width="5" height="1"/>
<rect x="68" y="13" width="5" height="1"/>
<rect x="74" y="13" width="4" height="1"/>
<rect x="79" y="13" width="5" height="1"/>
<rect x="86" y="13" width="10" height="1"/>
<rect x="98" y="13" width="5" height="1"/>
<rect x="104" y="13" width="5" height="1"/>
<rect x="110" y="13" width="5" height="1"/>
<rect x="123" y="13" width="5" height="1"/>
<rect x="129" y="13" width="5" height="1"/>
<rect x="135" y="13" width="5" height="1"/>
<rect x="141" y="13" width="5" height="1"/>
<rect x="147" y="13" width="5" height="1"/>
<rect x="156" y="13" width="14" height="1"/>
<rect x="172" y="13" width="5" height="1"/>
<rect x="0" y="14" width="5" height="1"/>
<rect x="7" y="14" width="10" height="1"/>
<rect x="19" y="14" width="4" height="1"/>
<rect x="24" y="14" width="5" height="1"/>
<rect x="31" y="14" width="5" height="1"/>
<rect x="37" y="14" width="5" height="1"/>
<rect x="43" y="14" width="5" height="1"/>
<rect x="49" y="14" width="5" height="1"/>
<rect x="56" y="14" width="5" height="1"/>
<rect x="62" y="14" width="5" height="1"/>
<rect x="68" y="14" width="5" height="1"/>
<rect x="74" y="14" width="4" height="1"/>
<rect x="79" y="14" width="5" height="1"/>
<rect x="86" y="14" width="10" height="1"/>
<rect x="98" y="14" width="5" height="1"/>
<rect x="104" y="14" width="5" height="1"/>
<rect x="110" y="14" width="5" height="1"/>
<rect x="123" y="14" width="5" height="1"/>
<rect x="129" y="14" width="5" height="1"/>
<rect x="135" y="14" width="5" height="1"/>
<rect x="141" y="14" width="5" height="1"/>
<rect x="147" y="14" width="5" height="1"/>
<rect x="155" y="14" width="15" height="1"/>
<rect x="172" y="14" width="5" height="1"/>
<rect x="0" y="15" width="17" height="1"/>
<rect x="24" y="15" width="5" height="1"/>
<rect x="31" y="15" width="5" height="1"/>
<rect x="37" y="15" width="5" height="1"/>
<rect x="49" y="15" width="5" height="1"/>
<rect x="56" y="15" width="5" height="1"/>
<rect x="62" y="15" width="5" height="1"/>
<rect x="68" y="15" width="5" height="1"/>
<rect x="74" y="15" width="4" height="1"/>
<rect x="79" y="15" width="5" height="1"/>
<rect x="86" y="15" width="10" height="1"/>
<rect x="98" y="15" width="5" height="1"/>
<rect x="104" y="15" width="5" height="1"/>
<rect x="110" y="15" width="5" height="1"/>
<rect x="123" y="15" width="5" height="1"/>
<rect x="129" y="15" width="5" height="1"/>
<rect x="135" y="15" width="5" height="1"/>
<rect x="141" y="15" width="5" height="1"/>
<rect x="147" y="15" width="5" height="1"/>
<rect x="154" y="15" width="16" height="1"/>
<rect x="172" y="15" width="5" height="1"/>
<rect x="0" y="16" width="11" height="1"/>
<rect x="12" y="16" width="5" height="1"/>
<rect x="24" y="16" width="5" height="1"/>
<rect x="31" y="16" width="5" height="1"/>
<rect x="37" y="16" width="5" height="1"/>
<rect x="49" y="16" width="5" height="1"/>
<rect x="56" y="16" width="5" height="1"/>
<rect x="62" y="16" width="5" height="1"/>
<rect x="68" y="16" width="5" height="1"/>
<rect x="74" y="16" width="4" height="1"/>
<rect x="79" y="16" width="5" height="1"/>
<rect x="86" y="16" width="10" height="1"/>
<rect x="98" y="16" width="5" height="1"/>
<rect x="104" y="16" width="5" height="1"/>
<rect x="110" y="16" width="5" height="1"/>
<rect x="123" y="16" width="5" height="1"/>
<rect x="129" y="16" width="5" height="1"/>
<rect x="135" y="16" width="5" height="1"/>
<rect x="141" y="16" width="5" height="1"/>
<rect x="147" y="16" width="5" height="1"/>
<rect x="153" y="16" width="17" height="1"/>
<rect x="172" y="16" width="5" height="1"/>
<rect x="0" y="17" width="11" height="1"/>
<rect x="12" y="17" width="5" height="1"/>
<rect x="24" y="17" width="5" height="1"/>
<rect x="31" y="17" width="5" height="1"/>
<rect x="37" y="17" width="5" height="1"/>
<rect x="49" y="17" width="5" height="1"/>
<rect x="56" y="17" width="5" height="1"/>
<rect x="62" y="17" width="5" height="1"/>
<rect x="68" y="17" width="5" height="1"/>
<rect x="74" y="17" width="4" height="1"/>
<rect x="79" y="17" width="5" height="1"/>
<rect x="86" y="17" width="10" height="1"/>
<rect x="98" y="17" width="5" height="1"/>
<rect x="104" y="17" width="5" height="1"/>
<rect x="110" y="17" width="5" height="1"/>
<rect x="123" y="17" width="5" height="1"/>
<rect x="129" y="17" width="5" height="1"/>
<rect x="135" y="17" width="5" height="1"/>
<rect x="141" y="17" width="5" height="1"/>
<rect x="147" y="17" width="5" height="1"/>
<rect x="153" y="17" width="17" height="1"/>
<rect x="172" y="17" width="5" height="1"/>
<rect x="0" y="18" width="10" height="1"/>
<rect x="12" y="18" width="10" height="1"/>
<rect x="24" y="18" width="5" height="1"/>
<rect x="31" y="18" width="5" height="1"/>
<rect x="37" y="18" width="5" height="1"/>
<rect x="49" y="18" width="5" height="1"/>
<rect x="56" y="18" width="5" height="1"/>
<rect x="62" y="18" width="5" height="1"/>
<rect x="68" y="18" width="5" height="1"/>
<rect x="74" y="18" width="4" height="1"/>
<rect x="79" y="18" width="5" height="1"/>
<rect x="86" y="18" width="10" height="1"/>
<rect x="98" y="18" width="5" height="1"/>
<rect x="104" y="18" width="5" height="1"/>
<rect x="110" y="18" width="5" height="1"/>
<rect x="123" y="18" width="5" height="1"/>
<rect x="129" y="18" width="5" height="1"/>
<rect x="135" y="18" width="5" height="1"/>
<rect x="141" y="18" width="5" height="1"/>
<rect x="147" y="18" width="5" height="1"/>
<rect x="153" y="18" width="5" height="1"/>
<rect x="160" y="18" width="10" height="1"/>
<rect x="172" y="18" width="5" height="1"/>
<rect x="0" y="19" width="9" height="1"/>
<rect x="12" y="19" width="11" height="1"/>
<rect x="24" y="19" width="5" height="1"/>
<rect x="31" y="19" width="5" height="1"/>
<rect x="37" y="19" width="5" height="1"/>
<rect x="49" y="19" width="5" height="1"/>
<rect x="56" y="19" width="5" height="1"/>
<rect x="62" y="19" width="5" height="1"/>
<rect x="68" y="19" width="5" height="1"/>
<rect x="74" y="19" width="4" height="1"/>
<rect x="79" y="19" width="5" height="1"/>
<rect x="86" y="19" width="10" height="1"/>
<rect x="98" y="19" width="5" height="1"/>
<rect x="104" y="19" width="5" height="1"/>
<rect x="110" y="19" width="5" height="1"/>
<rect x="123" y="19" width="5" height="1"/>
<rect x="129" y="19" width="5" height="1"/>
<rect x="135" y="19" width="5" height="1"/>
<rect x="141" y="19" width="5" height="1"/>
<rect x="147" y="19" width="5" height="1"/>
<rect x="153" y="19" width="5" height="1"/>
<rect x="160" y="19" width="10" height="1"/>
<rect x="172" y="19" width="5" height="1"/>
<rect x="0" y="20" width="5" height="1"/>
<rect x="13" y="20" width="10" height="1"/>
<rect x="24" y="20" width="5" height="1"/>
<rect x="31" y="20" width="5" height="1"/>
<rect x="37" y="20" width="5" height="1"/>
<rect x="49" y="20" width="5" height="1"/>
<rect x="56" y="20" width="5" height="1"/>
<rect x="62" y="20" width="5" height="1"/>
<rect x="68" y="20" width="5" height="1"/>
<rect x="74" y="20" width="4" height="1"/>
<rect x="79" y="20" width="5" height="1"/>
<rect x="86" y="20" width="10" height="1"/>
<rect x="98" y="20" width="5" height="1"/>
<rect x="104" y="20" width="5" height="1"/>
<rect x="110" y="20" width="5" height="1"/>
<rect x="123" y="20" width="5" height="1"/>
<rect x="129" y="20" width="5" height="1"/>
<rect x="135" y="20" width="5" height="1"/>
<rect x="141" y="20" width="5" height="1"/>
<rect x="147" y="20" width="5" height="1"/>
<rect x="153" y="20" width="5" height="1"/>
<rect x="160" y="20" width="10" height="1"/>
<rect x="172" y="20" width="5" height="1"/>
<rect x="0" y="21" width="5" height="1"/>
<rect x="13" y="21" width="10" height="1"/>
<rect x="24" y="21" width="5" height="1"/>
<rect x="31" y="21" width="5" height="1"/>
<rect x="37" y="21" width="5" height="1"/>
<rect x="49" y="21" width="5" height="1"/>
<rect x="56" y="21" width="5" height="1"/>
<rect x="62" y="21" width="5" height="1"/>
<rect x="68" y="21" width="5" height="1"/>
<rect x="74" y="21" width="4" height="1"/>
<rect x="79" y="21" width="5" height="1"/>
<rect x="86" y="21" width="10" height="1"/>
<rect x="98" y="21" width="5" height="1"/>
<rect x="104" y="21" width="5" height="1"/>
<rect x="110" y="21" width="5" height="1"/>
<rect x="123" y="21" width="5" height="1"/>
<rect x="129" y="21" width="5" height="1"/>
<rect x="135" y="21" width="5" height="1"/>
<rect x="141" y="21" width="5" height="1"/>
<rect x="147" y="21" width="5" height="1"/>
<rect x="153" y="21" width="5" height="1"/>
<rect x="160" y="21" width="10" height="1"/>
<rect x="172" y="21" width="5" height="1"/>
<rect x="0" y="22" width="5" height="1"/>
<rect x="15" y="22" width="14" height="1"/>
<rect x="31" y="22" width="5" height="1"/>
<rect x="37" y="22" width="5" height="1"/>
<rect x="49" y="22" width="5" height="1"/>
<rect x="56" y="22" width="5" height="1"/>
<rect x="62" y="22" width="5" height="1"/>
<rect x="68" y="22" width="5" height="1"/>
<rect x="74" y="22" width="4" height="1"/>
<rect x="79" y="22" width="5" height="1"/>
<rect x="86" y="22" width="10" height="1"/>
<rect x="98" y="22" width="5" height="1"/>
<rect x="104" y="22" width="5" height="1"/>
<rect x="110" y="22" width="5" height="1"/>
<rect x="123" y="22" width="5" height="1"/>
<rect x="129" y="22" width="5" height="1"/>
<rect x="135" y="22" width="5" height="1"/>
<rect x="141" y="22" width="5" height="1"/>
<rect x="147" y="22" width="5" height="1"/>
<rect x="153" y="22" width="5" height="1"/>
<rect x="160" y="22" width="10" height="1"/>
<rect x="172" y="22" width="5" height="1"/>
<rect x="0" y="23" width="5" height="1"/>
<rect x="19" y="23" width="10" height="1"/>
<rect x="31" y="23" width="5" height="1"/>
<rect x="37" y="23" width="5" height="1"/>
<rect x="49" y="23" width="5" height="1"/>
<rect x="56" y="23" width="5" height="1"/>
<rect x="62" y="23" width="5" height="1"/>
<rect x="68" y="23" width="5" height="1"/>
<rect x="74" y="23" width="4" height="1"/>
<rect x="79" y="23" width="5" height="1"/>
<rect x="86" y="23" width="10" height="1"/>
<rect x="98" y="23" width="5" height="1"/>
<rect x="104" y="23" width="5" height="1"/>
<rect x="110" y="23" width="5" height="1"/>
<rect x="123" y="23" width="5" height="1"/>
<rect x="129" y="23" width="5" height="1"/>
<rect x="135" y="23" width="5" height="1"/>
<rect x="141" y="23" width="5" height="1"/>
<rect x="147" y="23" width="5" height="1"/>
<rect x="153" y="23" width="5" height="1"/>
<rect x="160" y="23" width="10" height="1"/>
<rect x="172" y="23" width="5" height="1"/>
<rect x="0" y="24" width="5" height="1"/>
<rect x="18" y="24" width="11" height="1"/>
<rect x="31" y="24" width="5" height="1"/>
<rect x="37" y="24" width="5" height="1"/>
<rect x="49" y="24" width="5" height="1"/>
<rect x="56" y="24" width="5" height="1"/>
<rect x="62" y="24" width="5" height="1"/>
<rect x="68" y="24" width="5" height="1"/>
<rect x="74" y="24" width="4" height="1"/>
<rect x="79" y="24" width="5" height="1"/>
<rect x="86" y="24" width="10" height="1"/>
<rect x="98" y="24" width="5" height="1"/>
<rect x="104" y="24" width="5" height="1"/>
<rect x="110" y="24" width="5" height="1"/>
<rect x="123" y="24" width="5" height="1"/>
<rect x="129" y="24" width="5" height="1"/>
<rect x="135" y="24" width="5" height="1"/>
<rect x="141" y="24" width="5" height="1"/>
<rect x="147" y="24" width="5" height="1"/>
<rect x="153" y="24" width="5" height="1"/>
<rect x="160" y="24" width="10" height="1"/>
<rect x="172" y="24" width="5" height="1"/>
<rect x="0" y="25" width="5" height="1"/>
<rect x="13" y="25" width="3" height="1"/>
<rect x="18" y="25" width="11" height="1"/>
<rect x="31" y="25" width="5" height="1"/>
<rect x="37" y="25" width="5" height="1"/>
<rect x="44" y="25" width="4" height="1"/>
<rect x="49" y="25" width="5" height="1"/>
<rect x="56" y="25" width="5" height="1"/>
<rect x="62" y="25" width="5" height="1"/>
<rect x="68" y="25" width="5" height="1"/>
<rect x="74" y="25" width="4" height="1"/>
<rect x="79" y="25" width="5" height="1"/>
<rect x="86" y="25" width="10" height="1"/>
<rect x="98" y="25" width="5" height="1"/>
<rect x="104" y="25" width="5" height="1"/>
<rect x="110" y="25" width="5" height="1"/>
<rect x="123" y="25" width="5" height="1"/>
<rect x="129" y="25" width="5" height="1"/>
<rect x="135" y="25" width="5" height="1"/>
<rect x="141" y="25" width="5" height="1"/>
<rect x="147" y="25" width="5" height="1"/>
<rect x="153" y="25" width="5" height="1"/>
<rect x="160" y="25" width="10" height="1"/>
<rect x="172" y="25" width="5" height="1"/>
<rect x="0" y="26" width="5" height="1"/>
<rect x="12" y="26" width="5" height="1"/>
<rect x="18" y="26" width="11" height="1"/>
<rect x="31" y="26" width="5" height="1"/>
<rect x="37" y="26" width="5" height="1"/>
<rect x="43" y="26" width="5" height="1"/>
<rect x="49" y="26" width="5" height="1"/>
<rect x="56" y="26" width="5" height="1"/>
<rect x="62" y="26" width="5" height="1"/>
<rect x="68" y="26" width="5" height="1"/>
<rect x="74" y="26" width="4" height="1"/>
<rect x="79" y="26" width="5" height="1"/>
<rect x="86" y="26" width="10" height="1"/>
<rect x="98" y="26" width="5" height="1"/>
<rect x="104" y="26" width="5" height="1"/>
<rect x="110" y="26" width="5" height="1"/>
<rect x="123" y="26" width="5" height="1"/>
<rect x="129" y="26" width="5" height="1"/>
<rect x="135" y="26" width="5" height="1"/>
<rect x="141" y="26" width="5" height="1"/>
<rect x="147" y="26" width="5" height="1"/>
<rect x="153" y="26" width="5" height="1"/>
<rect x="160" y="26" width="10" height="1"/>
<rect x="172" y="26" width="5" height="1"/>
<rect x="0" y="27" width="5" height="1"/>
<rect x="12" y="27" width="5" height="1"/>
<rect x="18" y="27" width="11" height="1"/>
<rect x="31" y="27" width="5" height="1"/>
<rect x="37" y="27" width="5" height="1"/>
<rect x="43" y="27" width="5" height="1"/>
<rect x="49" y="27" width="5" height="1"/>
<rect x="56" y="27" width="5" height="1"/>
<rect x="62" y="27" width="5" height="1"/>
<rect x="68" y="27" width="5" height="1"/>
<rect x="74" y="27" width="4" height="1"/>
<rect x="79" y="27" width="5" height="1"/>
<rect x="86" y="27" width="10" height="1"/>
<rect x="98" y="27" width="5" height="1"/>
<rect x="104" y="27" width="5" height="1"/>
<rect x="110" y="27" width="5" height="1"/>
<rect x="123" y="27" width="5" height="1"/>
<rect x="129" y="27" width="5" height="1"/>
<rect x="135" y="27" width="5" height="1"/>
<rect x="141" y="27" width="5" height="1"/>
<rect x="147" y="27" width="5" height="1"/>
<rect x="153" y="27" width="5" height="1"/>
<rect x="160" y="27" width="11" height="1"/>
<rect x="172" y="27" width="5" height="1"/>
<rect x="0" y="28" width="5" height="1"/>
<rect x="12" y="28" width="5" height="1"/>
<rect x="19" y="28" width="10" height="1"/>
<rect x="31" y="28" width="5" height="1"/>
<rect x="37" y="28" width="5" height="1"/>
<rect x="43" y="28" width="5" height="1"/>
<rect x="49" y="28" width="5" height="1"/>
<rect x="56" y="28" width="5" height="1"/>
<rect x="62" y="28" width="5" height="1"/>
<rect x="68" y="28" width="5" height="1"/>
<rect x="74" y="28" width="4" height="1"/>
<rect x="79" y="28" width="5" height="1"/>
<rect x="86" y="28" width="10" height="1"/>
<rect x="98" y="28" width="5" height="1"/>
<rect x="104" y="28" width="4" height="1"/>
<rect x="110" y="28" width="5" height="1"/>
<rect x="123" y="28" width="5" height="1"/>
<rect x="129" y="28" width="5" height="1"/>
<rect x="135" y="28" width="5" height="1"/>
<rect x="141" y="28" width="5" height="1"/>
<rect x="147" y="28" width="5" height="1"/>
<rect x="153" y="28" width="5" height="1"/>
<rect x="160" y="28" width="10" height="1"/>
<rect x="172" y="28" width="5" height="1"/>
<rect x="0" y="29" width="5" height="1"/>
<rect x="12" y="29" width="5" height="1"/>
<rect x="18" y="29" width="5" height="1"/>
<rect x="24" y="29" width="12" height="1"/>
<rect x="37" y="29" width="11" height="1"/>
<rect x="49" y="29" width="5" height="1"/>
<rect x="56" y="29" width="5" height="1"/>
<rect x="62" y="29" width="11" height="1"/>
<rect x="74" y="29" width="4" height="1"/>
<rect x="79" y="29" width="11" height="1"/>
<rect x="91" y="29" width="12" height="1"/>
<rect x="104" y="29" width="11" height="1"/>
<rect x="123" y="29" width="5" height="1"/>
<rect x="129" y="29" width="11" height="1"/>
<rect x="141" y="29" width="11" height="1"/>
<rect x="153" y="29" width="24" height="1"/>
<rect x="0" y="30" width="5" height="1"/>
<rect x="13" y="30" width="10" height="1"/>
<rect x="24" y="30" width="12" height="1"/>
<rect x="37" y="30" width="11" height="1"/>
<rect x="49" y="30" width="5" height="1"/>
<rect x="56" y="30" width="5" height="1"/>
<rect x="62" y="30" width="11" height="1"/>
<rect x="74" y="30" width="5" height="1"/>
<rect x="80" y="30" width="10" height="1"/>
<rect x="92" y="30" width="11" height="1"/>
<rect x="104" y="30" width="11" height="1"/>
<rect x="123" y="30" width="5" height="1"/>
<rect x="129" y="30" width="11" height="1"/>
<rect x="141" y="30" width="11" height="1"/>
<rect x="153" y="30" width="12" height="1"/>
<rect x="166" y="30" width="11" height="1"/>
<rect x="0" y="31" width="5" height="1"/>
<rect x="13" y="31" width="9" height="1"/>
<rect x="25" y="31" width="11" height="1"/>
<rect x="38" y="31" width="9" height="1"/>
<rect x="49" y="31" width="5" height="1"/>
<rect x="56" y="31" width="5" height="1"/>
<rect x="63" y="31" width="9" height="1"/>
<rect x="73" y="31" width="6" height="1"/>
<rect x="80" y="31" width="10" height="1"/>
<rect x="92" y="31" width="11" height="1"/>
<rect x="104" y="31" width="11" height="1"/>
<rect x="123" y="31" width="5" height="1"/>
<rect x="130" y="31" width="9" height="1"/>
<rect x="141" y="31" width="11" height="1"/>
<rect x="154" y="31" width="11" height="1"/>
<rect x="166" y="31" width="11" height="1"/>
<rect x="0" y="32" width="5" height="1"/>
<rect x="14" y="32" width="8" height="1"/>
<rect x="26" y="32" width="10" height="1"/>
<rect x="39" y="32" width="7" height="1"/>
<rect x="49" y="32" width="5" height="1"/>
<rect x="56" y="32" width="5" height="1"/>
<rect x="64" y="32" width="7" height="1"/>
<rect x="74" y="32" width="5" height="1"/>
<rect x="81" y="32" width="8" height="1"/>
<rect x="93" y="32" width="10" height="1"/>
<rect x="105" y="32" width="10" height="1"/>
<rect x="123" y="32" width="5" height="1"/>
<rect x="131" y="32" width="7" height="1"/>
<rect x="142" y="32" width="10" height="1"/>
<rect x="154" y="32" width="11" height="1"/>
<rect x="167" y="32" width="10" height="1"/>
<rect x="0" y="33" width="5" height="1"/>
<rect x="16" y="33" width="4" height="1"/>
<rect x="27" y="33" width="9" height="1"/>
<rect x="40" y="33" width="5" height="1"/>
<rect x="49" y="33" width="5" height="1"/>
<rect x="56" y="33" width="4" height="1"/>
<rect x="65" y="33" width="4" height="1"/>
<rect x="74" y="33" width="4" height="1"/>
<rect x="83" y="33" width="4" height="1"/>
<rect x="94" y="33" width="9" height="1"/>
<rect x="106" y="33" width="9" height="1"/>
<rect x="123" y="33" width="5" height="1"/>
<rect x="132" y="33" width="5" height="1"/>
<rect x="144" y="33" width="8" height="1"/>
<rect x="156" y="33" width="8" height="1"/>
<rect x="168" y="33" width="9" height="1"/>
<rect x="31" y="34" width="5" height="1"/>
<rect x="98" y="34" width="5" height="1"/>
<rect x="110" y="34" width="5" height="1"/>
<rect x="172" y="34" width="5" height="1"/>
<rect x="31" y="35" width="5" height="1"/>
<rect x="92" y="35" width="11" height="1"/>
<rect x="110" y="35" width="5" height="1"/>
<rect x="172" y="35" width="5" height="1"/>
<rect x="31" y="36" width="5" height="1"/>
<rect x="92" y="36" width="11" height="1"/>
<rect x="110" y="36" width="5" height="1"/>
<rect x="172" y="36" width="5" height="1"/>
<rect x="31" y="37" width="5" height="1"/>
<rect x="92" y="37" width="11" height="1"/>
<rect x="110" y="37" width="5" height="1"/>
<rect x="172" y="37" width="5" height="1"/>
<rect x="31" y="38" width="5" height="1"/>
<rect x="92" y="38" width="10" height="1"/>
<rect x="110" y="38" width="5" height="1"/>
<rect x="172" y="38" width="5" height="1"/>
<rect x="31" y="39" width="5" height="1"/>
<rect x="92" y="39" width="9" height="1"/>
<rect x="110" y="39" width="5" height="1"/>
<rect x="172" y="39" width="5" height="1"/>
</svg>