<svg xmlns="http://www.w3.org/2000/svg" viewBox="0 0 221 50" fill="#9CA3AF">
<rect x="0" y="1" width="12" height="1"/>
<rect x="61" y="1" width="6" height="1"/>
<rect x="92" y="1" width="4" height="1"/>
<rect x="150" y="1" width="14" height="1"/>
<rect x="184" y="1" width="6" height="1"/>
<rect x="0" y="2" width="13" height="1"/>
<rect x="61" y="2" width="7" height="1"/>
<rect x="92" y="2" width="5" height="1"/>
<rect x="150" y="2" width="14" height="1"/>
<rect x="184" y="2" width="6" height="1"/>
<rect x="0" y="3" width="14" height="1"/>
<rect x="61" y="3" width="7" height="1"/>
<rect x="92" y="3" width="5" height="1"/>
<rect x="150" y="3" width="14" height="1"/>
<rect x="184" y="3" width="6" height="1"/>
<rect x="0" y="4" width="14" height="1"/>
<rect x="61" y="4" width="7" height="1"/>
<rect x="92" y="4" width="6" height="1"/>
<rect x="150" y="4" width="14" height="1"/>
<rect x="184" y="4" width="6" height="1"/>
<rect x="0" y="5" width="14" height="1"/>
<rect x="61" y="5" width="7" height="1"/>
<rect x="92" y="5" width="6" height="1"/>
<rect x="150" y="5" width="14" height="1"/>
<rect x="184" y="5" width="6" height="1"/>
<rect x="0" y="6" width="14" height="1"/>
<rect x="61" y="6" width="7" height="1"/>
<rect x="92" y="6" width="6" height="1"/>
<rect x="150" y="6" width="14" height="1"/>
<rect x="184" y="6" width="6" height="1"/>
<rect x="0" y="7" width="6" height="1"/>
<rect x="8" y="7" width="6" height="1"/>
<rect x="61" y="7" width="7" height="1"/>
<rect x="92" y="7" width="6" height="1"/>
<rect x="154" y="7" width="6" height="1"/>
<rect x="184" y="7" width="6" height="1"/>
<rect x="0" y="8" width="6" height="1"/>
<rect x="8" y="8" width="6" height="1"/>
<rect x="21" y="8" width="3" height="1"/>
<rect x="51" y="8" width="4" height="1"/>
<rect x="61" y="8" width="7" height="1"/>
<rect x="82" y="8" width="4" height="1"/>
<rect x="92" y="8" width="6" height="1"/>
<rect x="104" y="8" width="4" height="1"/>
<rect x="120" y="8" width="3" height="1"/>
<rect x="154" y="8" width="6" height="1"/>
<rect x="166" y="8" width="4" height="1"/>
<rect x="184" y="8" width="6" height="1"/>
<rect x="0" y="9" width="6" height="1"/>
<rect x="8" y="9" width="6" height="1"/>
<rect x="18" y="9" width="8" height="1"/>
<rect x="31" y="9" width="6" height="1"/>
<rect x="39" y="9" width="6" height="1"/>
<rect x="49" y="9" width="8" height="1"/>
<rect x="61" y="9" width="12" height="1"/>
<rect x="80" y="9" width="8" height="1"/>
<rect x="92" y="9" width="6" height="1"/>
<rect x="102" y="9" width="8" height="1"/>
<rect x="117" y="9" width="8" height="1"/>
<rect x="129" y="9" width="6" height="1"/>
<rect x="137" y="9" width="6" height="1"/>
<rect x="154" y="9" width="6" height="1"/>
<rect x="164" y="9" width="8" height="1"/>
<rect x="178" y="9" width="12" height="1"/>
<rect x="192" y="9" width="11" height="1"/>
<rect x="207" y="9" width="6" height="1"/>
<rect x="215" y="9" width="6" height="1"/>
<rect x="0" y="10" width="6" height="1"/>
<rect x="8" y="10" width="6" height="1"/>
<rect x="17" y="10" width="10" height="1"/>
<rect x="31" y="10" width="6" height="1"/>
<rect x="39" y="10" width="6" height="1"/>
<rect x="48" y="10" width="10" height="1"/>
<rect x="61" y="10" width="13" height="1"/>
<rect x="79" y="10" width="10" height="1"/>
<rect x="92" y="10" width="6" height="1"/>
<rect x="101" y="10" width="10" height="1"/>
<rect x="116" y="10" width="10" height="1"/>
<rect x="129" y="10" width="6" height="1"/>
<rect x="137" y="10" width="6" height="1"/>
<rect x="154" y="10" width="6" height="1"/>
<rect x="163" y="10" width="10" height="1"/>
<rect x="177" y="10" width="13" height="1"/>
<rect x="192" y="10" width="12" height="1"/>
<rect x="207" y="10" width="6" height="1"/>
<rect x="215" y="10" width="6" height="1"/>
<rect x="0" y="11" width="6" height="1"/>
<rect x="8" y="11" width="6" height="1"/>
<rect x="16" y="11" width="12" height="1"/>
<rect x="31" y="11" width="6" height="1"/>
<rect x="39" y="11" width="6" height="1"/>
<rect x="47" y="11" width="12" height="1"/>
<rect x="61" y="11" width="14" height="1"/>
<rect x="78" y="11" width="12" height="1"/>
<rect x="92" y="11" width="6" height="1"/>
<rect x="100" y="11" width="12" height="1"/>
<rect x="115" y="11" width="12" height="1"/>
<rect x="129" y="11" width="6" height="1"/>
<rect x="137" y="11" width="6" height="1"/>
<rect x="154" y="11" width="6" height="1"/>
<rect x="162" y="11" width="12" height="1"/>
<rect x="176" y="11" width="14" height="1"/>
<rect x="192" y="11" width="13" height="1"/>
<rect x="207" y="11" width="6" height="1"/>
<rect x="215" y="11" width="6" height="1"/>
<rect x="0" y="12" width="6" height="1"/>
<rect x="8" y="12" width="6" height="1"/>
<rect x="16" y="12" width="13" height="1"/>
<rect x="31" y="12" width="6" height="1"/>
<rect x="39" y="12" width="6" height="1"/>
<rect x="47" y="12" width="13" height="1"/>
<rect x="61" y="12" width="14" height="1"/>
<rect x="78" y="12" width="12" height="1"/>
<rect x="92" y="12" width="6" height="1"/>
<rect x="99" y="12" width="13" height="1"/>
<rect x="115" y="12" width="13" height="1"/>
<rect x="129" y="12" width="6" height="1"/>
<rect x="137" y="12" width="6" height="1"/>
<rect x="154" y="12" width="6" height="1"/>
<rect x="161" y="12" width="13" height="1"/>
<rect x="176" y="12" width="14" height="1"/>
<rect x="192" y="12" width="13" height="1"/>
<rect x="207" y="12" width="6" height="1"/>
<rect x="215" y="12" width="6" height="1"/>
<rect x="0" y="13" width="6" height="1"/>
<rect x="8" y="13" width="6" height="1"/>
<rect x="15" y="13" width="14" height="1"/>
<rect x="31" y="13" width="6" height="1"/>
<rect x="39" y="13" width="6" height="1"/>
<rect x="46" y="13" width="14" height="1"/>
<rect x="61" y="13" width="15" height="1"/>
<rect x="77" y="13" width="14" height="1"/>
<rect x="92" y="13" width="6" height="1"/>
<rect x="99" y="13" width="14" height="1"/>
<rect x="114" y="13" width="14" height="1"/>
<rect x="129" y="13" width="6" height="1"/>
<rect x="137" y="13" width="6" height="1"/>
<rect x="154" y="13" width="6" height="1"/>
<rect x="161" y="13" width="14" height="1"/>
<rect x="176" y="13" width="14" height="1"/>
<rect x="192" y="13" width="13" height="1"/>
<rect x="207" y="13" width="6" height="1"/>
<rect x="215" y="13" width="6" height="1"/>
<rect x="0" y="14" width="6" height="1"/>
<rect x="8" y="14" width="6" height="1"/>
<rect x="15" y="14" width="14" height="1"/>
<rect x="31" y="14" width="6" height="1"/>
<rect x="39" y="14" width="6" height="1"/>
<rect x="46" y="14" width="14" height="1"/>
<rect x="61" y="14" width="7" height="1"/>
<rect x="69" y="14" width="7" height="1"/>
<rect x="77" y="14" width="14" height="1"/>
<rect x="92" y="14" width="6" height="1"/>
<rect x="99" y="14" width="14" height="1"/>
<rect x="114" y="14" width="14" height="1"/>
<rect x="129" y="14" width="6" height="1"/>
<rect x="137" y="14" width="6" height="1"/>
<rect x="154" y="14" width="6" height="1"/>
<rect x="161" y="14" width="14" height="1"/>
<rect x="176" y="14" width="14" height="1"/>
<rect x="192" y="14" width="13" height="1"/>
<rect x="207" y="14" width="6" height="1"/>
<rect x="215" y="14" width="6" height="1"/>
<rect x="0" y="15" width="6" height="1"/>
<rect x="8" y="15" width="6" height="1"/>
<rect x="15" y="15" width="6" height="1"/>
<rect x="23" y="15" width="6" height="1"/>
<rect x="31" y="15" width="6" height="1"/>
<rect x="39" y="15" width="6" height="1"/>
<rect x="46" y="15" width="6" height="1"/>
<rect x="54" y="15" width="6" height="1"/>
<rect x="61" y="15" width="7" height="1"/>
<rect x="70" y="15" width="6" height="1"/>
<rect x="77" y="15" width="6" height="1"/>
<rect x="85" y="15" width="6" height="1"/>
<rect x="92" y="15" width="6" height="1"/>
<rect x="99" y="15" width="6" height="1"/>
<rect x="107" y="15" width="6" height="1"/>
<rect x="114" y="15" width="6" height="1"/>
<rect x="122" y="15" width="6" height="1"/>
<rect x="129" y="15" width="6" height="1"/>
<rect x="137" y="15" width="6" height="1"/>
<rect x="154" y="15" width="6" height="1"/>
<rect x="161" y="15" width="6" height="1"/>
<rect x="169" y="15" width="6" height="1"/>
<rect x="176" y="15" width="6" height="1"/>
<rect x="184" y="15" width="6" height="1"/>
<rect x="199" y="15" width="6" height="1"/>
<rect x="207" y="15" width="6" height="1"/>
<rect x="215" y="15" width="6" height="1"/>
<rect x="0" y="16" width="6" height="1"/>
<rect x="8" y="16" width="6" height="1"/>
<rect x="15" y="16" width="6" height="1"/>
<rect x="23" y="16" width="6" height="1"/>
<rect x="31" y="16" width="6" height="1"/>
<rect x="39" y="16" width="6" height="1"/>
<rect x="46" y="16" width="6" height="1"/>
<rect x="54" y="16" width="6" height="1"/>
<rect x="61" y="16" width="7" height="1"/>
<rect x="70" y="16" width="6" height="1"/>
<rect x="77" y="16" width="6" height="1"/>
<rect x="85" y="16" width="6" height="1"/>
<rect x="92" y="16" width="6" height="1"/>
<rect x="99" y="16" width="6" height="1"/>
<rect x="107" y="16" width="6" height="1"/>
<rect x="114" y="16" width="6" height="1"/>
<rect x="122" y="16" width="6" height="1"/>
<rect x="129" y="16" width="6" height="1"/>
<rect x="137" y="16" width="6" height="1"/>
<rect x="154" y="16" width="6" height="1"/>
<rect x="161" y="16" width="6" height="1"/>
<rect x="169" y="16" width="6" height="1"/>
<rect x="176" y="16" width="6" height="1"/>
<rect x="184" y="16" width="6" height="1"/>
<rect x="199" y="16" width="6" height="1"/>
<rect x="207" y="16" width="6" height="1"/>
<rect x="215" y="16" width="6" height="1"/>
<rect x="0" y="17" width="6" height="1"/>
<rect x="8" y="17" width="6" height="1"/>
<rect x="15" y="17" width="6" height="1"/>
<rect x="23" y="17" width="6" height="1"/>
<rect x="31" y="17" width="6" height="1"/>
<rect x="39" y="17" width="6" height="1"/>
<rect x="46" y="17" width="6" height="1"/>
<rect x="54" y="17" width="6" height="1"/>
<rect x="61" y="17" width="7" height="1"/>
<rect x="70" y="17" width="6" height="1"/>
<rect x="77" y="17" width="6" height="1"/>
<rect x="85" y="17" width="6" height="1"/>
<rect x="92" y="17" width="6" height="1"/>
<rect x="99" y="17" width="6" height="1"/>
<rect x="107" y="17" width="6" height="1"/>
<rect x="114" y="17" width="6" height="1"/>
<rect x="122" y="17" width="6" height="1"/>
<rect x="129" y="17" width="6" height="1"/>
<rect x="137" y="17" width="6" height="1"/>
<rect x="154" y="17" width="6" height="1"/>
<rect x="161" y="17" width="6" height="1"/>
<rect x="169" y="17" width="6" height="1"/>
<rect x="176" y="17" width="6" height="1"/>
<rect x="184" y="17" width="6" height="1"/>
<rect x="194" y="17" width="11" height="1"/>
<rect x="207" y="17" width="6" height="1"/>
<rect x="215" y="17" width="6" height="1"/>
<rect x="0" y="18" width="7" height="1"/>
<rect x="8" y="18" width="6" height="1"/>
<rect x="15" y="18" width="6" height="1"/>
<rect x="23" y="18" width="6" height="1"/>
<rect x="31" y="18" width="6" height="1"/>
<rect x="39" y="18" width="6" height="1"/>
<rect x="46" y="18" width="6" height="1"/>
<rect x="54" y="18" width="6" height="1"/>
<rect x="61" y="18" width="7" height="1"/>
<rect x="70" y="18" width="6" height="1"/>
<rect x="77" y="18" width="6" height="1"/>
<rect x="85" y="18" width="6" height="1"/>
<rect x="92" y="18" width="6" height="1"/>
<rect x="99" y="18" width="6" height="1"/>
<rect x="107" y="18" width="6" height="1"/>
<rect x="114" y="18" width="6" height="1"/>
<rect x="122" y="18" width="6" height="1"/>
<rect x="129" y="18" width="6" height="1"/>
<rect x="137" y="18" width="6" height="1"/>
<rect x="154" y="18" width="6" height="1"/>
<rect x="161" y="18" width="6" height="1"/>
<rect x="169" y="18" width="6" height="1"/>
<rect x="176" y="18" width="6" height="1"/>
<rect x="184" y="18" width="6" height="1"/>
<rect x="193" y="18" width="12" height="1"/>
<rect x="207" y="18" width="6" height="1"/>
<rect x="215" y="18" width="6" height="1"/>
<rect x="0" y="19" width="14" height="1"/>
<rect x="15" y="19" width="6" height="1"/>
<rect x="31" y="19" width="6" height="1"/>
<rect x="39" y="19" width="6" height="1"/>
<rect x="46" y="19" width="6" height="1"/>
<rect x="61" y="19" width="7" height="1"/>
<rect x="70" y="19" width="6" height="1"/>
<rect x="77" y="19" width="6" height="1"/>
<rect x="85" y="19" width="6" height="1"/>
<rect x="92" y="19" width="6" height="1"/>
<rect x="99" y="19" width="6" height="1"/>
<rect x="107" y="19" width="6" height="1"/>
<rect x="114" y="19" width="6" height="1"/>
<rect x="122" y="19" width="6" height="1"/>
<rect x="129" y="19" width="6" height="1"/>
<rect x="137" y="19" width="6" height="1"/>
<rect x="154" y="19" width="6" height="1"/>
<rect x="161" y="19" width="6" height="1"/>
<rect x="169" y="19" width="6" height="1"/>
<rect x="176" y="19" width="6" height="1"/>
<rect x="184" y="19" width="6" height="1"/>
<rect x="192" y="19" width="13" height="1"/>
<rect x="207" y="19" width="6" height="1"/>
<rect x="215" y="19" width="6" height="1"/>
<rect x="0" y="20" width="14" height="1"/>
<rect x="15" y="20" width="6" height="1"/>
<rect x="31" y="20" width="6" height="1"/>
<rect x="39" y="20" width="6" height="1"/>
<rect x="46" y="20" width="6" height="1"/>
<rect x="61" y="20" width="7" height="1"/>
<rect x="70" y="20" width="6" height="1"/>
<rect x="77" y="20" width="6" height="1"/>
<rect x="85" y="20" width="6" height="1"/>
<rect x="92" y="20" width="6" height="1"/>
<rect x="99" y="20" width="6" height="1"/>
<rect x="107" y="20" width="6" height="1"/>
<rect x="114" y="20" width="6" height="1"/>
<rect x="122" y="20" width="6" height="1"/>
<rect x="129" y="20" width="6" height="1"/>
<rect x="137" y="20" width="6" height="1"/>
<rect x="154" y="20" width="6" height="1"/>
<rect x="161" y="20" width="6" height="1"/>
<rect x="169" y="20" width="6" height="1"/>
<rect x="176" y="20" width="6" height="1"/>
<rect x="184" y="20" width="6" height="1"/>
<rect x="191" y="20" width="14" height="1"/>
<rect x="207" y="20" width="6" height="1"/>
<rect x="215" y="20" width="6" height="1"/>
<rect x="0" y="21" width="14" height="1"/>
<rect x="15" y="21" width="6" height="1"/>
<rect x="31" y="21" width="6" height="1"/>
<rect x="39" y="21" width="6" height="1"/>
<rect x="46" y="21" width="6" height="1"/>
<rect x="61" y="21" width="7" height="1"/>
<rect x="70" y="21" width="6" height="1"/>
<rect x="77" y="21" width="6" height="1"/>
<rect x="85" y="21" width="6" height="1"/>
<rect x="92" y="21" width="6" height="1"/>
<rect x="99" y="21" width="6" height="1"/>
<rect x="107" y="21" width="6" height="1"/>
<rect x="114" y="21" width="6" height="1"/>
<rect x="122" y="21" width="6" height="1"/>
<rect x="129" y="21" width="6" height="1"/>
<rect x="137" y="21" width="6" height="1"/>
<rect x="154" y="21" width="6" height="1"/>
<rect x="161" y="21" width="6" height="1"/>
<rect x="169" y="21" width="6" height="1"/>
<rect x="176" y="21" width="6" height="1"/>
<rect x="184" y="21" width="6" height="1"/>
<rect x="191" y="21" width="14" height="1"/>
<rect x="207" y="21" width="6" height="1"/>
<rect x="215" y="21" width="6" height="1"/>
<rect x="0" y="22" width="13" height="1"/>
<rect x="15" y="22" width="11" height="1"/>
<rect x="31" y="22" width="6" height="1"/>
<rect x="39" y="22" width="6" height="1"/>
<rect x="46" y="22" width="6" height="1"/>
<rect x="61" y="22" width="7" height="1"/>
<rect x="70" y="22" width="6" height="1"/>
<rect x="77" y="22" width="6" height="1"/>
<rect x="85" y="22" width="6" height="1"/>
<rect x="92" y="22" width="6" height="1"/>
<rect x="99" y="22" width="6" height="1"/>
<rect x="107" y="22" width="6" height="1"/>
<rect x="114" y="22" width="6" height="1"/>
<rect x="122" y="22" width="6" height="1"/>
<rect x="129" y="22" width="6" height="1"/>
<rect x="137" y="22" width="6" height="1"/>
<rect x="154" y="22" width="6" height="1"/>
<rect x="161" y="22" width="6" height="1"/>
<rect x="169" y="22" width="6" height="1"/>
<rect x="176" y="22" width="6" height="1"/>
<rect x="184" y="22" width="6" height="1"/>
<rect x="191" y="22" width="6" height="1"/>
<rect x="199" y="22" width="6" height="1"/>
<rect x="207" y="22" width="6" height="1"/>
<rect x="215" y="22" width="6" height="1"/>
<rect x="0" y="23" width="12" height="1"/>
<rect x="15" y="23" width="12" height="1"/>
<rect x="31" y="23" width="6" height="1"/>
<rect x="39" y="23" width="6" height="1"/>
<rect x="46" y="23" width="6" height="1"/>
<rect x="61" y="23" width="7" height="1"/>
<rect x="70" y="23" width="6" height="1"/>
<rect x="77" y="23" width="6" height="1"/>
<rect x="85" y="23" width="6" height="1"/>
<rect x="92" y="23" width="6" height="1"/>
<rect x="99" y="23" width="6" height="1"/>
<rect x="107" y="23" width="6" height="1"/>
<rect x="114" y="23" width="6" height="1"/>
<rect x="122" y="23" width="6" height="1"/>
<rect x="129" y="23" width="6" height="1"/>
<rect x="137" y="23" width="6" height="1"/>
<rect x="154" y="23" width="6" height="1"/>
<rect x="161" y="23" width="6" height="1"/>
<rect x="169" y="23" width="6" height="1"/>
<rect x="176" y="23" width="6" height="1"/>
<rect x="184" y="23" width="6" height="1"/>
<rect x="191" y="23" width="6" height="1"/>
<rect x="199" y="23" width="6" height="1"/>
<rect x="207" y="23" width="6" height="1"/>
<rect x="215" y="23" width="6" height="1"/>
<rect x="0" y="24" width="6" height="1"/>
<rect x="15" y="24" width="13" height="1"/>
<rect x="31" y="24" width="6" height="1"/>
<rect x="39" y="24" width="6" height="1"/>
<rect x="46" y="24" width="6" height="1"/>
<rect x="61" y="24" width="7" height="1"/>
<rect x="70" y="24" width="6" height="1"/>
<rect x="77" y="24" width="6" height="1"/>
<rect x="85" y="24" width="6" height="1"/>
<rect x="92" y="24" width="6" height="1"/>
<rect x="99" y="24" width="6" height="1"/>
<rect x="107" y="24" width="6" height="1"/>
<rect x="114" y="24" width="6" height="1"/>
<rect x="122" y="24" width="6" height="1"/>
<rect x="129" y="24" width="6" height="1"/>
<rect x="137" y="24" width="6" height="1"/>
<rect x="154" y="24" width="6" height="1"/>
<rect x="161" y="24" width="6" height="1"/>
<rect x="169" y="24" width="6" height="1"/>
<rect x="176" y="24" width="6" height="1"/>
<rect x="184" y="24" width="6" height="1"/>
<rect x="191" y="24" width="6" height="1"/>
<rect x="199" y="24" width="6" height="1"/>
<rect x="207" y="24" width="6" height="1"/>
<rect x="215" y="24" width="6" height="1"/>
<rect x="0" y="25" width="6" height="1"/>
<rect x="16" y="25" width="13" height="1"/>
<rect x="31" y="25" width="6" height="1"/>
<rect x="39" y="25" width="6" height="1"/>
<rect x="46" y="25" width="6" height="1"/>
<rect x="61" y="25" width="7" height="1"/>
<rect x="70" y="25" width="6" height="1"/>
<rect x="77" y="25" width="6" height="1"/>
<rect x="85" y="25" width="6" height="1"/>
<rect x="92" y="25" width="6" height="1"/>
<rect x="99" y="25" width="6" height="1"/>
<rect x="107" y="25" width="6" height="1"/>
<rect x="114" y="25" width="6" height="1"/>
<rect x="122" y="25" width="6" height="1"/>
<rect x="129" y="25" width="6" height="1"/>
<rect x="137" y="25" width="6" height="1"/>
<rect x="154" y="25" width="6" height="1"/>
<rect x="161" y="25" width="6" height="1"/>
<rect x="169" y="25" width="6" height="1"/>
<rect x="176" y="25" width="6" height="1"/>
<rect x="184" y="25" width="6" height="1"/>
<rect x="191" y="25" width="6" height="1"/>
<rect x="199" y="25" width="6" height="1"/>
<rect x="207" y="25" width="6" height="1"/>
<rect x="215" y="25" width="6" height="1"/>
<rect x="0" y="26" width="6" height="1"/>
<rect x="16" y="26" width="13" height="1"/>
<rect x="31" y="26" width="6" height="1"/>
<rect x="39" y="26" width="6" height="1"/>
<rect x="46" y="26" width="6" height="1"/>
<rect x="61" y="26" width="7" height="1"/>
<rect x="70" y="26" width="6" height="1"/>
<rect x="77" y="26" width="6" height="1"/>
<rect x="85" y="26" width="6" height="1"/>
<rect x="92" y="26" width="6" height="1"/>
<rect x="99" y="26" width="6" height="1"/>
<rect x="107" y="26" width="6" height="1"/>
<rect x="114" y="26" width="6" height="1"/>
<rect x="122" y="26" width="6" height="1"/>
<rect x="129" y="26" width="6" height="1"/>
<rect x="137" y="26" width="6" height="1"/>
<rect x="154" y="26" width="6" height="1"/>
<rect x="161" y="26" width="6" height="1"/>
<rect x="169" y="26" width="6" height="1"/>
<rect x="176" y="26" width="6" height="1"/>
<rect x="184" y="26" width="6" height="1"/>
<rect x="191" y="26" width="6" height="1"/>
<rect x="199" y="26" width="6" height="1"/>
<rect x="207" y="26" width="6" height="1"/>
<rect x="215" y="26" width="6" height="1"/>
<rect x="0" y="27" width="6" height="1"/>
<rect x="17" y="27" width="12" height="1"/>
<rect x="31" y="27" width="6" height="1"/>
<rect x="39" y="27" width="6" height="1"/>
<rect x="46" y="27" width="6" height="1"/>
<rect x="61" y="27" width="7" height="1"/>
<rect x="70" y="27" width="6" height="1"/>
<rect x="77" y="27" width="6" height="1"/>
<rect x="85" y="27" width="6" height="1"/>
<rect x="92" y="27" width="6" height="1"/>
<rect x="99" y="27" width="6" height="1"/>
<rect x="107" y="27" width="6" height="1"/>
<rect x="114" y="27" width="6" height="1"/>
<rect x="122" y="27" width="6" height="1"/>
<rect x="129" y="27" width="6" height="1"/>
<rect x="137" y="27" width="6" height="1"/>
<rect x="154" y="27" width="6" height="1"/>
<rect x="161" y="27" width="6" height="1"/>
<rect x="169" y="27" width="6" height="1"/>
<rect x="176" y="27" width="6" height="1"/>
<rect x="184" y="27" width="6" height="1"/>
<rect x="191" y="27" width="6" height="1"/>
<rect x="199" y="27" width="6" height="1"/>
<rect x="207" y="27" width="6" height="1"/>
<rect x="215" y="27" width="6" height="1"/>
<rect x="0" y="28" width="6" height="1"/>
<rect x="23" y="28" width="6" height="1"/>
<rect x="31" y="28" width="6" height="1"/>
<rect x="39" y="28" width="6" height="1"/>
<rect x="46" y="28" width="6" height="1"/>
<rect x="61" y="28" width="7" height="1"/>
<rect x="70" y="28" width="6" height="1"/>
<rect x="77" y="28" width="6" height="1"/>
<rect x="85" y="28" width="6" height="1"/>
<rect x="92" y="28" width="6" height="1"/>
<rect x="99" y="28" width="6" height="1"/>
<rect x="107" y="28" width="6" height="1"/>
<rect x="114" y="28" width="6" height="1"/>
<rect x="122" y="28" width="6" height="1"/>
<rect x="129" y="28" width="6" height="1"/>
<rect x="137" y="28" width="6" height="1"/>
<rect x="154" y="28" width="6" height="1"/>
<rect x="161" y="28" width="6" height="1"/>
<rect x="169" y="28" width="6" height="1"/>
<rect x="176" y="28" width="6" height="1"/>
<rect x="184" y="28" width="6" height="1"/>
<rect x="191" y="28" width="6" height="1"/>
<rect x="199" y="28" width="6" height="1"/>
<rect x="207" y="28" width="6" height="1"/>
<rect x="215" y="28" width="6" height="1"/>
<rect x="0" y="29" width="6" height="1"/>
<rect x="23" y="29" width="6" height="1"/>
<rect x="31" y="29" width="6" height="1"/>
<rect x="39" y="29" width="6" height="1"/>
<rect x="46" y="29" width="6" height="1"/>
<rect x="61" y="29" width="7" height="1"/>
<rect x="70" y="29" width="6" height="1"/>
<rect x="77" y="29" width="6" height="1"/>
<rect x="85" y="29" width="6" height="1"/>
<rect x="92" y="29" width="6" height="1"/>
<rect x="99" y="29" width="6" height="1"/>
<rect x="107" y="29" width="6" height="1"/>
<rect x="114" y="29" width="6" height="1"/>
<rect x="122" y="29" width="6" height="1"/>
<rect x="129" y="29" width="6" height="1"/>
<rect x="137" y="29" width="6" height="1"/>
<rect x="154" y="29" width="6" height="1"/>
<rect x="161" y="29" width="6" height="1"/>
<rect x="169" y="29" width="6" height="1"/>
<rect x="176" y="29" width="6" height="1"/>
<rect x="184" y="29" width="6" height="1"/>
<rect x="191" y="29" width="6" height="1"/>
<rect x="199" y="29" width="6" height="1"/>
<rect x="207" y="29" width="6" height="1"/>
<rect x="215" y="29" width="6" height="1"/>
<rect x="0" y="30" width="6" height="1"/>
<rect x="23" y="30" width="6" height="1"/>
<rect x="31" y="30" width="6" height="1"/>
<rect x="39" y="30" width="6" height="1"/>
<rect x="46" y="30" width="6" height="1"/>
<rect x="61" y="30" width="7" height="1"/>
<rect x="70" y="30" width="6" height="1"/>
<rect x="77" y="30" width="6" height="1"/>
<rect x="85" y="30" width="6" height="1"/>
<rect x="92" y="30" width="6" height="1"/>
<rect x="99" y="30" width="6" height="1"/>
<rect x="107" y="30" width="6" height="1"/>
<rect x="114" y="30" width="6" height="1"/>
<rect x="122" y="30" width="6" height="1"/>
<rect x="129" y="30" width="6" height="1"/>
<rect x="137" y="30" width="6" height="1"/>
<rect x="154" y="30" width="6" height="1"/>
<rect x="161" y="30" width="6" height="1"/>
<rect x="169" y="30" width="6" height="1"/>
<rect x="176" y="30" width="6" height="1"/>
<rect x="184" y="30" width="6" height="1"/>
<rect x="191" y="30" width="6" height="1"/>
<rect x="199" y="30" width="6" height="1"/>
<rect x="207" y="30" width="6" height="1"/>
<rect x="215" y="30" width="6" height="1"/>
<rect x="0" y="31" width="6" height="1"/>
<rect x="23" y="31" width="6" height="1"/>
<rect x="31" y="31" width="6" height="1"/>
<rect x="39" y="31" width="6" height="1"/>
<rect x="46" y="31" width="6" height="1"/>
<rect x="61" y="31" width="7" height="1"/>
<rect x="70" y="31" width="6" height="1"/>
<rect x="77" y="31" width="6" height="1"/>
<rect x="85" y="31" width="6" height="1"/>
<rect x="92" y="31" width="6" height="1"/>
<rect x="99" y="31" width="6" height="1"/>
<rect x="107" y="31" width="6" height="1"/>
<rect x="114" y="31" width="6" height="1"/>
<rect x="122" y="31" width="6" height="1"/>
<rect x="129" y="31" width="6" height="1"/>
<rect x="137" y="31" width="6" height="1"/>
<rect x="154" y="31" width="6" height="1"/>
<rect x="161" y="31" width="6" height="1"/>
<rect x="169" y="31" width="6" height="1"/>
<rect x="176" y="31" width="6" height="1"/>
<rect x="184" y="31" width="6" height="1"/>
<rect x="191" y="31" width="6" height="1"/>
<rect x="199" y="31" width="6" height="1"/>
<rect x="207" y="31" width="6" height="1"/>
<rect x="215" y="31" width="6" height="1"/>
<rect x="0" y="32" width="6" height="1"/>
<rect x="15" y="32" width="6" height="1"/>
<rect x="23" y="32" width="6" height="1"/>
<rect x="31" y="32" width="6" height="1"/>
<rect x="39" y="32" width="6" height="1"/>
<rect x="46" y="32" width="6" height="1"/>
<rect x="54" y="32" width="6" height="1"/>
<rect x="61" y="32" width="7" height="1"/>
<rect x="70" y="32" width="6" height="1"/>
<rect x="77" y="32" width="6" height="1"/>
<rect x="85" y="32" width="6" height="1"/>
<rect x="92" y="32" width="6" height="1"/>
<rect x="99" y="32" width="6" height="1"/>
<rect x="107" y="32" width="6" height="1"/>
<rect x="114" y="32" width="6" height="1"/>
<rect x="122" y="32" width="6" height="1"/>
<rect x="129" y="32" width="6" height="1"/>
<rect x="137" y="32" width="6" height="1"/>
<rect x="154" y="32" width="6" height="1"/>
<rect x="161" y="32" width="6" height="1"/>
<rect x="169" y="32" width="6" height="1"/>
<rect x="176" y="32" width="6" height="1"/>
<rect x="184" y="32" width="6" height="1"/>
<rect x="191" y="32" width="6" height="1"/>
<rect x="199" y="32" width="6" height="1"/>
<rect x="207" y="32" width="6" height="1"/>
<rect x="215" y="32" width="6" height="1"/>
<rect x="0" y="33" width="6" height="1"/>
<rect x="15" y="33" width="6" height="1"/>
<rect x="23" y="33" width="6" height="1"/>
<rect x="31" y="33" width="6" height="1"/>
<rect x="39" y="33" width="6" height="1"/>
<rect x="46" y="33" width="6" height="1"/>
<rect x="54" y="33" width="6" height="1"/>
<rect x="61" y="33" width="7" height="1"/>
<rect x="70" y="33" width="6" height="1"/>
<rect x="77" y="33" width="6" height="1"/>
<rect x="85" y="33" width="6" height="1"/>
<rect x="92" y="33" width="6" height="1"/>
<rect x="99" y="33" width="6" height="1"/>
<rect x="107" y="33" width="6" height="1"/>
<rect x="114" y="33" width="6" height="1"/>
<rect x="122" y="33" width="6" height="1"/>
<rect x="129" y="33" width="6" height="1"/>
<rect x="137" y="33" width="6" height="1"/>
<rect x="154" y="33" width="6" height="1"/>
<rect x="161" y="33" width="6" height="1"/>
<rect x="169" y="33" width="6" height="1"/>
<rect x="176" y="33" width="6" height="1"/>
<rect x="184" y="33" width="6" height="1"/>
<rect x="191" y="33" width="6" height="1"/>
<rect x="199" y="33" width="6" height="1"/>
<rect x="207" y="33" width="6" height="1"/>
<rect x="215" y="33" width="6" height="1"/>
<rect x="0" y="34" width="6" height="1"/>
<rect x="15" y="34" width="6" height="1"/>
<rect x="23" y="34" width="6" height="1"/>
<rect x="31" y="34" width="6" height="1"/>
<rect x="39" y="34" width="6" height="1"/>
<rect x="46" y="34" width="6" height="1"/>
<rect x="54" y="34" width="6" height="1"/>
<rect x="61" y="34" width="7" height="1"/>
<rect x="70" y="34" width="6" height="1"/>
<rect x="77" y="34" width="6" height="1"/>
<rect x="85" y="34" width="6" height="1"/>
<rect x="92" y="34" width="6" height="1"/>
<rect x="99" y="34" width="6" height="1"/>
<rect x="107" y="34" width="6" height="1"/>
<rect x="114" y="34" width="6" height="1"/>
<rect x="122" y="34" width="6" height="1"/>
<rect x="129" y="34" width="6" height="1"/>
<rect x="137" y="34" width="6" height="1"/>
<rect x="154" y="34" width="6" height="1"/>
<rect x="161" y="34" width="6" height="1"/>
<rect x="169" y="34" width="6" height="1"/>
<rect x="176" y="34" width="6" height="1"/>
<rect x="184" y="34" width="6" height="1"/>
<rect x="191" y="34" width="6" height="1"/>
<rect x="199" y="34" width="6" height="1"/>
<rect x="207" y="34" width="6" height="1"/>
<rect x="215" y="34" width="6" height="1"/>
<rect x="0" y="35" width="6" height="1"/>
<rect x="15" y="35" width="6" height="1"/>
<rect x="23" y="35" width="6" height="1"/>
<rect x="31" y="35" width="6" height="1"/>
<rect x="39" y="35" width="6" height="1"/>
<rect x="46" y="35" width="6" height="1"/>
<rect x="54" y="35" width="6" height="1"/>
<rect x="61" y="35" width="7" height="1"/>
<rect x="70" y="35" width="6" height="1"/>
<rect x="77" y="35" width="6" height="1"/>
<rect x="85" y="35" width="6" height="1"/>
<rect x="92" y="35" width="6" height="1"/>
<rect x="99" y="35" width="6" height="1"/>
<rect x="107" y="35" width="6" height="1"/>
<rect x="114" y="35" width="6" height="1"/>
<rect x="122" y="35" width="6" height="1"/>
<rect x="129" y="35" width="6" height="1"/>
<rect x="137" y="35" width="6" height="1"/>
<rect x="154" y="35" width="6" height="1"/>
<rect x="161" y="35" width="6" height="1"/>
<rect x="169" y="35" width="6" height="1"/>
<rect x="176" y="35" width="6" height="1"/>
<rect x="184" y="35" width="6" height="1"/>
<rect x="191" y="35" width="6" height="1"/>
<rect x="199" y="35" width="6" height="1"/>
<rect x="207" y="35" width="6" height="1"/>
<rect x="215" y="35" width="6" height="1"/>
<rect x="0" y="36" width="6" height="1"/>
<rect x="15" y="36" width="6" height="1"/>
<rect x="23" y="36" width="6" height="1"/>
<rect x="31" y="36" width="6" height="1"/>
<rect x="39" y="36" width="6" height="1"/>
<rect x="46" y="36" width="14" height="1"/>
<rect x="61" y="36" width="7" height="1"/>
<rect x="70" y="36" width="6" height="1"/>
<rect x="77" y="36" width="6" height="1"/>
<rect x="85" y="36" width="6" height="1"/>
<rect x="92" y="36" width="6" height="1"/>
<rect x="99" y="36" width="6" height="1"/>
<rect x="107" y="36" width="6" height="1"/>
<rect x="114" y="36" width="14" height="1"/>
<rect x="129" y="36" width="7" height="1"/>
<rect x="137" y="36" width="6" height="1"/>
<rect x="154" y="36" width="6" height="1"/>
<rect x="161" y="36" width="6" height="1"/>
<rect x="168" y="36" width="7" height="1"/>
<rect x="176" y="36" width="6" height="1"/>
<rect x="184" y="36" width="6" height="1"/>
<rect x="191" y="36" width="7" height="1"/>
<rect x="199" y="36" width="6" height="1"/>
<rect x="207" y="36" width="6" height="1"/>
<rect x="215" y="36" width="6" height="1"/>
<rect x="0" y="37" width="6" height="1"/>
<rect x="16" y="37" width="13" height="1"/>
<rect x="31" y="37" width="14" height="1"/>
<rect x="46" y="37" width="14" height="1"/>
<rect x="61" y="37" width="7" height="1"/>
<rect x="70" y="37" width="6" height="1"/>
<rect x="77" y="37" width="14" height="1"/>
<rect x="92" y="37" width="6" height="1"/>
<rect x="99" y="37" width="14" height="1"/>
<rect x="114" y="37" width="14" height="1"/>
<rect x="129" y="37" width="14" height="1"/>
<rect x="154" y="37" width="6" height="1"/>
<rect x="161" y="37" width="14" height="1"/>
<rect x="176" y="37" width="14" height="1"/>
<rect x="191" y="37" width="14" height="1"/>
<rect x="207" y="37" width="14" height="1"/>
<rect x="0" y="38" width="6" height="1"/>
<rect x="16" y="38" width="12" height="1"/>
<rect x="31" y="38" width="14" height="1"/>
<rect x="47" y="38" width="12" height="1"/>
<rect x="61" y="38" width="7" height="1"/>
<rect x="70" y="38" width="6" height="1"/>
<rect x="78" y="38" width="12" height="1"/>
<rect x="92" y="38" width="6" height="1"/>
<rect x="100" y="38" width="12" height="1"/>
<rect x="115" y="38" width="13" height="1"/>
<rect x="130" y="38" width="13" height="1"/>
<rect x="154" y="38" width="6" height="1"/>
<rect x="162" y="38" width="12" height="1"/>
<rect x="176" y="38" width="14" height="1"/>
<rect x="192" y="38" width="13" height="1"/>
<rect x="207" y="38" width="14" height="1"/>
<rect x="0" y="39" width="6" height="1"/>
<rect x="17" y="39" width="11" height="1"/>
<rect x="31" y="39" width="14" height="1"/>
<rect x="47" y="39" width="12" height="1"/>
<rect x="61" y="39" width="7" height="1"/>
<rect x="70" y="39" width="6" height="1"/>
<rect x="78" y="39" width="12" height="1"/>
<rect x="92" y="39" width="6" height="1"/>
<rect x="100" y="39" width="12" height="1"/>
<rect x="115" y="39" width="13" height="1"/>
<rect x="130" y="39" width="13" height="1"/>
<rect x="154" y="39" width="6" height="1"/>
<rect x="162" y="39" width="11" height="1"/>
<rect x="177" y="39" width="13" height="1"/>
<rect x="192" y="39" width="13" height="1"/>
<rect x="207" y="39" width="14" height="1"/>
<rect x="0" y="40" width="6" height="1"/>
<rect x="18" y="40" width="9" height="1"/>
<rect x="32" y="40" width="13" height="1"/>
<rect x="48" y="40" width="10" height="1"/>
<rect x="61" y="40" width="7" height="1"/>
<rect x="70" y="40" width="6" height="1"/>
<rect x="79" y="40" width="10" height="1"/>
<rect x="92" y="40" width="6" height="1"/>
<rect x="101" y="40" width="10" height="1"/>
<rect x="116" y="40" width="12" height="1"/>
<rect x="131" y="40" width="12" height="1"/>
<rect x="154" y="40" width="6" height="1"/>
<rect x="163" y="40" width="10" height="1"/>
<rect x="177" y="40" width="13" height="1"/>
<rect x="193" y="40" width="12" height="1"/>
<rect x="208" y="40" width="13" height="1"/>
<rect x="0" y="41" width="6" height="1"/>
<rect x="19" y="41" width="6" height="1"/>
<rect x="34" y="41" width="11" height="1"/>
<rect x="50" y="41" width="6" height="1"/>
<rect x="62" y="41" width="5" height="1"/>
<rect x="70" y="41" width="5" height="1"/>
<rect x="81" y="41" width="6" height="1"/>
<rect x="92" y="41" width="6" height="1"/>
<rect x="103" y="41" width="6" height="1"/>
<rect x="117" y="41" width="11" height="1"/>
<rect x="132" y="41" width="11" height="1"/>
<rect x="154" y="41" width="6" height="1"/>
<rect x="165" y="41" width="6" height="1"/>
<rect x="179" y="41" width="11" height="1"/>
<rect x="194" y="41" width="11" height="1"/>
<rect x="210" y="41" width="11" height="1"/>
<rect x="39" y="42" width="6" height="1"/>
<rect x="122" y="42" width="6" height="1"/>
<rect x="137" y="42" width="6" height="1"/>
<rect x="215" y="42" width="6" height="1"/>
<rect x="39" y="43" width="6" height="1"/>
<rect x="122" y="43" width="6" height="1"/>
<rect x="137" y="43" width="6" height="1"/>
<rect x="215" y="43" width="6" height="1"/>
<rect x="39" y="44" width="6" height="1"/>
<rect x="115" y="44" width="13" height="1"/>
<rect x="137" y="44" width="6" height="1"/>
<rect x="215" y="44" width="6" height="1"/>
<rect x="39" y="45" width="6" height="1"/>
<rect x="115" y="45" width="13" height="1"/>
<rect x="137" y="45" width="6" height="1"/>
<rect x="215" y="45" width="6" height="1"/>
<rect x="39" y="46" width="6" height="1"/>
<rect x="115" y="46" width="13" height="1"/>
<rect x="137" y="46" width="6" height="1"/>
<rect x="215" y="46" width="6" height="1"/>
<rect x="39" y="47" width="6" height="1"/>
<rect x="115" y="47" width="13" height="1"/>
<rect x="137" y="47" width="6" height="1"/>
<rect x="215" y="47" width="6" height="1"/>
<rect x="39" y="48" width="6" height="1"/>
<rect x="115" y="48" width="12" height="1"/>
<rect x="137" y="48" width="6" height="1"/>
<rect x="215" y="48" width="6" height="1"/>
<rect x="39" y="49" width="5" height="1"/>
<rect x="115" y="49" width="10" height="1"/>
<rect x="138" y="49" width="5" height="1"/>
<rect x="215" y="49" width="5" height="1"/>
</svg>