<svg xmlns="http://www.w3.org/2000/svg" viewBox="0 0 68 55" fill="#111827">
<rect x="0" y="1" width="65" height="1"/>
<rect x="0" y="2" width="65" height="1"/>
<rect x="0" y="3" width="65" height="1"/>
<rect x="0" y="4" width="65" height="1"/>
<rect x="0" y="5" width="65" height="1"/>
<rect x="0" y="6" width="65" height="1"/>
<rect x="0" y="7" width="65" height="1"/>
<rect x="0" y="8" width="65" height="1"/>
<rect x="0" y="9" width="11" height="1"/>
<rect x="13" y="9" width="6" height="1"/>
<rect x="21" y="9" width="7" height="1"/>
<rect x="33" y="9" width="4" height="1"/>
<rect x="39" y="9" width="26" height="1"/>
<rect x="0" y="10" width="11" height="1"/>
<rect x="13" y="10" width="6" height="1"/>
<rect x="21" y="10" width="5" height="1"/>
<rect x="34" y="10" width="3" height="1"/>
<rect x="38" y="10" width="12" height="1"/>
<rect x="52" y="10" width="13" height="1"/>
<rect x="0" y="11" width="11" height="1"/>
<rect x="13" y="11" width="6" height="1"/>
<rect x="21" y="11" width="4" height="1"/>
<rect x="27" y="11" width="10" height="1"/>
<rect x="38" y="11" width="12" height="1"/>
<rect x="52" y="11" width="13" height="1"/>
<rect x="0" y="12" width="11" height="1"/>
<rect x="13" y="12" width="6" height="1"/>
<rect x="21" y="12" width="3" height="1"/>
<rect x="26" y="12" width="11" height="1"/>
<rect x="38" y="12" width="11" height="1"/>
<rect x="52" y="12" width="13" height="1"/>
<rect x="0" y="13" width="11" height="1"/>
<rect x="13" y="13" width="6" height="1"/>
<rect x="21" y="13" width="3" height="1"/>
<rect x="26" y="13" width="10" height="1"/>
<rect x="38" y="13" width="11" height="1"/>
<rect x="50" y="13" width="1" height="1"/>
<rect x="53" y="13" width="12" height="1"/>
<rect x="0" y="14" width="11" height="1"/>
<rect x="12" y="14" width="7" height="1"/>
<rect x="21" y="14" width="3" height="1"/>
<rect x="25" y="14" width="11" height="1"/>
<rect x="38" y="14" width="10" height="1"/>
<rect x="50" y="14" width="2" height="1"/>
<rect x="53" y="14" width="12" height="1"/>
<rect x="0" y="15" width="11" height="1"/>
<rect x="12" y="15" width="7" height="1"/>
<rect x="21" y="15" width="2" height="1"/>
<rect x="25" y="15" width="11" height="1"/>
<rect x="38" y="15" width="10" height="1"/>
<rect x="49" y="15" width="3" height="1"/>
<rect x="53" y="15" width="12" height="1"/>
<rect x="0" y="16" width="11" height="1"/>
<rect x="12" y="16" width="7" height="1"/>
<rect x="20" y="16" width="3" height="1"/>
<rect x="25" y="16" width="11" height="1"/>
<rect x="38" y="16" width="9" height="1"/>
<rect x="49" y="16" width="3" height="1"/>
<rect x="54" y="16" width="11" height="1"/>
<rect x="0" y="17" width="11" height="1"/>
<rect x="12" y="17" width="7" height="1"/>
<rect x="20" y="17" width="3" height="1"/>
<rect x="25" y="17" width="11" height="1"/>
<rect x="38" y="17" width="9" height="1"/>
<rect x="48" y="17" width="5" height="1"/>
<rect x="54" y="17" width="11" height="1"/>
<rect x="0" y="18" width="11" height="1"/>
<rect x="12" y="18" width="6" height="1"/>
<rect x="20" y="18" width="4" height="1"/>
<rect x="26" y="18" width="10" height="1"/>
<rect x="38" y="18" width="8" height="1"/>
<rect x="48" y="18" width="4" height="1"/>
<rect x="54" y="18" width="11" height="1"/>
<rect x="0" y="19" width="11" height="1"/>
<rect x="13" y="19" width="5" height="1"/>
<rect x="20" y="19" width="4" height="1"/>
<rect x="26" y="19" width="10" height="1"/>
<rect x="38" y="19" width="8" height="1"/>
<rect x="55" y="19" width="10" height="1"/>
<rect x="0" y="20" width="11" height="1"/>
<rect x="14" y="20" width="3" height="1"/>
<rect x="19" y="20" width="5" height="1"/>
<rect x="28" y="20" width="3" height="1"/>
<rect x="33" y="20" width="3" height="1"/>
<rect x="38" y="20" width="7" height="1"/>
<rect x="47" y="20" width="6" height="1"/>
<rect x="55" y="20" width="10" height="1"/>
<rect x="0" y="21" width="12" height="1"/>
<rect x="18" y="21" width="8" height="1"/>
<rect x="33" y="21" width="3" height="1"/>
<rect x="43" y="21" width="2" height="1"/>
<rect x="47" y="21" width="7" height="1"/>
<rect x="56" y="21" width="9" height="1"/>
<rect x="0" y="22" width="29" height="1"/>
<rect x="30" y="22" width="35" height="1"/>
<rect x="0" y="23" width="65" height="1"/>
<rect x="0" y="24" width="65" height="1"/>
<rect x="0" y="25" width="65" height="1"/>
<rect x="0" y="26" width="65" height="1"/>
<rect x="0" y="27" width="65" height="1"/>
<rect x="0" y="28" width="65" height="1"/>
<rect x="0" y="29" width="65" height="1"/>
<rect x="0" y="30" width="65" height="1"/>
<rect x="1" y="38" width="7" height="1"/>
<rect x="10" y="38" width="7" height="1"/>
<rect x="38" y="38" width="5" height="1"/>
<rect x="52" y="38" width="4" height="1"/>
<rect x="63" y="38" width="4" height="1"/>
<rect x="1" y="39" width="7" height="1"/>
<rect x="10" y="39" width="7" height="1"/>
<rect x="38" y="39" width="5" height="1"/>
<rect x="47" y="39" width="2" height="1"/>
<rect x="52" y="39" width="4" height="1"/>
<rect x="62" y="39" width="6" height="1"/>
<rect x="3" y="40" width="3" height="1"/>
<rect x="12" y="40" width="3" height="1"/>
<rect x="40" y="40" width="3" height="1"/>
<rect x="47" y="40" width="2" height="1"/>
<rect x="53" y="40" width="3" height="1"/>
<rect x="62" y="40" width="6" height="1"/>
<rect x="3" y="41" width="3" height="1"/>
<rect x="12" y="41" width="3" height="1"/>
<rect x="40" y="41" width="3" height="1"/>
<rect x="46" y="41" width="3" height="1"/>
<rect x="53" y="41" width="3" height="1"/>
<rect x="62" y="41" width="6" height="1"/>
<rect x="3" y="42" width="3" height="1"/>
<rect x="12" y="42" width="3" height="1"/>
<rect x="21" y="42" width="2" height="1"/>
<rect x="31" y="42" width="3" height="1"/>
<rect x="40" y="42" width="3" height="1"/>
<rect x="45" y="42" width="4" height="1"/>
<rect x="53" y="42" width="3" height="1"/>
<rect x="58" y="42" width="2" height="1"/>
<rect x="63" y="42" width="4" height="1"/>
<rect x="3" y="43" width="3" height="1"/>
<rect x="12" y="43" width="3" height="1"/>
<rect x="19" y="43" width="6" height="1"/>
<rect x="29" y="43" width="7" height="1"/>
<rect x="40" y="43" width="3" height="1"/>
<rect x="44" y="43" width="8" height="1"/>
<rect x="53" y="43" width="3" height="1"/>
<rect x="57" y="43" width="5" height="1"/>
<rect x="64" y="43" width="2" height="1"/>
<rect x="3" y="44" width="3" height="1"/>
<rect x="12" y="44" width="3" height="1"/>
<rect x="18" y="44" width="3" height="1"/>
<rect x="23" y="44" width="3" height="1"/>
<rect x="28" y="44" width="3" height="1"/>
<rect x="33" y="44" width="4" height="1"/>
<rect x="40" y="44" width="3" height="1"/>
<rect x="44" y="44" width="7" height="1"/>
<rect x="53" y="44" width="5" height="1"/>
<rect x="59" y="44" width="4" height="1"/>
<rect x="3" y="45" width="12" height="1"/>
<rect x="17" y="45" width="3" height="1"/>
<rect x="24" y="45" width="2" height="1"/>
<rect x="28" y="45" width="3" height="1"/>
<rect x="34" y="45" width="3" height="1"/>
<rect x="40" y="45" width="3" height="1"/>
<rect x="46" y="45" width="3" height="1"/>
<rect x="53" y="45" width="4" height="1"/>
<rect x="60" y="45" width="3" height="1"/>
<rect x="3" y="46" width="12" height="1"/>
<rect x="17" y="46" width="3" height="1"/>
<rect x="24" y="46" width="3" height="1"/>
<rect x="28" y="46" width="3" height="1"/>
<rect x="34" y="46" width="3" height="1"/>
<rect x="40" y="46" width="3" height="1"/>
<rect x="46" y="46" width="3" height="1"/>
<rect x="53" y="46" width="3" height="1"/>
<rect x="60" y="46" width="3" height="1"/>
<rect x="3" y="47" width="3" height="1"/>
<rect x="12" y="47" width="3" height="1"/>
<rect x="16" y="47" width="11" height="1"/>
<rect x="32" y="47" width="5" height="1"/>
<rect x="40" y="47" width="3" height="1"/>
<rect x="46" y="47" width="3" height="1"/>
<rect x="53" y="47" width="3" height="1"/>
<rect x="60" y="47" width="3" height="1"/>
<rect x="3" y="48" width="3" height="1"/>
<rect x="12" y="48" width="3" height="1"/>
<rect x="16" y="48" width="11" height="1"/>
<rect x="30" y="48" width="7" height="1"/>
<rect x="40" y="48" width="3" height="1"/>
<rect x="46" y="48" width="3" height="1"/>
<rect x="53" y="48" width="3" height="1"/>
<rect x="60" y="48" width="3" height="1"/>
<rect x="3" y="49" width="3" height="1"/>
<rect x="12" y="49" width="3" height="1"/>
<rect x="16" y="49" width="4" height="1"/>
<rect x="28" y="49" width="4" height="1"/>
<rect x="34" y="49" width="3" height="1"/>
<rect x="40" y="49" width="3" height="1"/>
<rect x="46" y="49" width="3" height="1"/>
<rect x="53" y="49" width="3" height="1"/>
<rect x="60" y="49" width="3" height="1"/>
<rect x="3" y="50" width="3" height="1"/>
<rect x="12" y="50" width="3" height="1"/>
<rect x="17" y="50" width="3" height="1"/>
<rect x="27" y="50" width="4" height="1"/>
<rect x="34" y="50" width="3" height="1"/>
<rect x="40" y="50" width="3" height="1"/>
<rect x="46" y="50" width="3" height="1"/>
<rect x="51" y="50" width="1" height="1"/>
<rect x="53" y="50" width="3" height="1"/>
<rect x="60" y="50" width="3" height="1"/>
<rect x="3" y="51" width="3" height="1"/>
<rect x="12" y="51" width="3" height="1"/>
<rect x="17" y="51" width="3" height="1"/>
<rect x="25" y="51" width="6" height="1"/>
<rect x="34" y="51" width="3" height="1"/>
<rect x="38" y="51" width="1" height="1"/>
<rect x="40" y="51" width="3" height="1"/>
<rect x="46" y="51" width="3" height="1"/>
<rect x="50" y="51" width="2" height="1"/>
<rect x="53" y="51" width="3" height="1"/>
<rect x="60" y="51" width="3" height="1"/>
<rect x="2" y="52" width="4" height="1"/>
<rect x="12" y="52" width="3" height="1"/>
<rect x="18" y="52" width="3" height="1"/>
<rect x="24" y="52" width="7" height="1"/>
<rect x="33" y="52" width="6" height="1"/>
<rect x="40" y="52" width="3" height="1"/>
<rect x="46" y="52" width="3" height="1"/>
<rect x="50" y="52" width="2" height="1"/>
<rect x="53" y="52" width="3" height="1"/>
<rect x="60" y="52" width="3" height="1"/>
<rect x="1" y="53" width="7" height="1"/>
<rect x="10" y="53" width="7" height="1"/>
<rect x="18" y="53" width="8" height="1"/>
<rect x="28" y="53" width="17" height="1"/>
<rect x="46" y="53" width="12" height="1"/>
<rect x="60" y="53" width="5" height="1"/>
<rect x="1" y="54" width="7" height="1"/>
<rect x="10" y="54" width="7" height="1"/>
<rect x="20" y="54" width="4" height="1"/>
<rect x="29" y="54" width="4" height="1"/>
<rect x="36" y="54" width="1" height="1"/>
<rect x="39" y="54" width="5" height="1"/>
<rect x="47" y="54" width="4" height="1"/>
<rect x="52" y="54" width="6" height="1"/>
<rect x="61" y="54" width="3" height="1"/>
</svg>